<?xml version="1.0" encoding="utf-8"?>
<!-- Generator: Adobe Illustrator 26.2.1, SVG Export Plug-In . SVG Version: 6.00 Build 0)  -->
<svg version="1.1" id="图层_1" xmlns="http://www.w3.org/2000/svg" xmlns:xlink="http://www.w3.org/1999/xlink" x="0px" y="0px"
	 viewBox="0 0 800 353.9" style="enable-background:new 0 0 800 353.9;" xml:space="preserve">
<style type="text/css">
	.st0{fill:#FFFFFF;fill-opacity:0;}
	.st1{fill:#FFFFFF;}
</style>
<g transform="translate(101.25,92.52375030517578)">
	<g>
		<g transform="translate(0,0)">
			<g transform="scale(1)">
				<g transform="translate(0, 0)">
					<g>
						<g>
							<rect x="-55.8" y="-45.6" class="st0" width="219.2" height="257.9"/>
							<g>
								<path class="st1" d="M-51.4,212.2c-14.2,0-25.8-11.5-25.8-25.8V-19.8c0-14.2,11.5-25.8,25.8-25.8s25.8,11.5,25.8,25.8v206.3
									C-25.6,200.7-37.2,212.2-51.4,212.2z M116.2-45.6c-5.4,0-10.6,1.7-15,4.8L11,23.7c-6.8,4.8-10.8,12.7-10.8,21
									c0,14.2,11.5,25.8,25.8,25.8c5.4,0,10.6-1.7,15-4.8l90.2-64.5c6.8-4.8,10.8-12.7,10.8-21C142-34.1,130.4-45.6,116.2-45.6z
									 M116.2,212.2c-5.4,0-10.6-1.7-15-4.8L11,143c-6.8-4.8-10.8-12.7-10.8-21c0-14.2,11.5-25.8,25.8-25.8c5.4,0,10.6,1.7,15,4.8
									l90.2,64.5c6.8,4.8,10.8,12.7,10.8,21C142,200.7,130.4,212.2,116.2,212.2z"/>
							</g>
						</g>
					</g>
				</g>
				<g transform="translate(42.5, 0)">
					<g>
						<g>
							<rect x="120.9" y="-45.6" class="st0" width="283.6" height="257.9"/>
							<g>
								<path class="st1" d="M177.3,119.9c-10.5-24-46-18.8-49.2,7.2l-7,56.1c-0.1,1.1-0.2,2.1-0.2,3.2c0,14.2,11.5,25.8,25.8,25.8
									c13,0,24-9.7,25.6-22.6l7-56.2C179.8,128.9,179.2,124.2,177.3,119.9z M348.1,119.9c10.5-24,46-18.8,49.2,7.1l7,56.2
									c0.1,1.1,0.2,2.1,0.2,3.2c0,14.2-11.5,25.8-25.8,25.8c-13,0-24-9.7-25.6-22.6l-7-56.2C345.5,128.9,346.2,124.2,348.1,119.9z
									 M329.3-30.1l-66.6,152.3L196.1-30.1c-4.1-9.4-13.4-15.5-23.6-15.5c-14.2,0-25.8,11.5-25.8,25.8c0,3.5,0.7,7.1,2.2,10.3
									l90.2,206.3c4.1,9.4,13.4,15.5,23.6,15.5c10.2,0,19.5-6.1,23.6-15.5L376.6-9.5c1.4-3.3,2.2-6.8,2.2-10.3
									c0-14.2-11.5-25.8-25.8-25.8C342.7-45.6,333.4-39.5,329.3-30.1z"/>
							</g>
						</g>
					</g>
				</g>
				<g transform="translate(97.5, 0)">
					<g>
						<g>
							<rect x="349.5" y="-45.6" class="st0" width="206.3" height="257.9"/>
							<path class="st1" d="M578-19.9c0-14.2-11.5-25.8-25.8-25.8H449.1c-42.7,0-77.4,34.6-77.4,77.4s34.6,77.4,77.4,77.4h51.6
								c14.2,0,25.8,11.5,25.8,25.8s-11.5,25.8-25.8,25.8H397.5c-14.2,0-25.8,11.5-25.8,25.8c0,14.2,11.5,25.8,25.8,25.8h103.1
								c42.7,0,77.4-34.6,77.4-77.4s-34.6-77.4-77.4-77.4H449c-14.2,0-25.8-11.5-25.8-25.8s11.6-25.8,25.9-25.8h103.1
								C566.5,5.9,578-5.7,578-19.9z"/>
						</g>
					</g>
				</g>
			</g>
		</g>
	</g>
</g>
</svg>
