<svg
  version="1.1"
  xmlns="http://www.w3.org/2000/svg"
  xmlns:xlink="http://www.w3.org/1999/xlink"
  x="0px"
  y="0px"
  viewBox="0 0 841.89 595.28"
  style="enable-background: new 0 0 841.89 595.28"
  xml:space="preserve"
>
  <style type="text/css">
    .st0 {
      fill-rule: evenodd;
      clip-rule: evenodd;
      fill: #50554a;
    }
    .st1 {
      fill: #50554a;
    }
    .st2 {
      fill: #e85349;
    }
    .st3 {
      fill: #f3bb4b;
    }
    .st4 {
      fill: #ba4b97;
    }
    .st5 {
      fill: #46b574;
    }
  </style>
  <g transform="translate(75.11500549316406,87.94315719604492)">
    <g transform="matrix(1,0,0,1,0,10.587577819824219)">
      <g>
        <g>
          <path
            class="st0"
            d="M452.63-3.45c0,11.49-3.59,22.98-12.93,32.32c-11.49,11.49-29.44,15.08-44.53,10.05l-20.83,20.83
					l-11.49-10.77l8.62-8.62c2.15-2.15-2.15-6.46-4.31-4.31l-8.62,8.62l-0.72-0.72l-7.18,3.59l-8.62-9.34l26.57-25.85
					c-5.03-15.08-2.15-33.04,10.05-45.24c17.24-16.52,44.53-16.52,61.04,0l-30.16,11.49c-5.75,2.87-9.34,10.05-7.18,16.52l2.87,5.75
					c2.15,6.46,9.34,10.05,15.8,7.9l30.88-12.21H452.63z M356.39,51.13l79.72,77.56l-27.29,26.57l-76.84-79l2.87-7.18l-43.81-43.81
					c-3.59,2.87-8.62,2.15-12.93-0.72l-4.31,10.05l0.72,0.72c2.15,2.15,2.15,5.75,0,7.18l-12.93,12.93c-2.15,2.15-5.03,2.15-7.18,0
					L226.4,27.43c-1.44-1.44-1.44-5.03,0-7.18l12.93-12.21c2.15-2.15,5.03-2.15,7.18,0h0.72l10.05-3.59
					c-2.87-5.03-3.59-10.77,0-14.36l12.93-12.21c17.24-19.39,46.68-22.98,81.87-19.39l-0.72,7.18
					c-32.32,7.18-43.09,18.67-46.68,43.81l45.24,45.24L356.39,51.13z M340.59,94.22l-52.43,52.43c-7.9,7.18-20.11,7.18-27.29,0l0,0
					c-7.18-7.9-7.18-19.39,0-27.29l58.17-57.45l8.62,8.62l-3.59,7.18l0.72,0.72l-34.47,34.47c-2.15,2.15,2.15,6.46,4.31,4.31
					l34.47-34.47L340.59,94.22z M280.27,127.25c2.87,2.15,2.87,6.46,0,9.34c-2.87,2.15-6.46,2.15-9.34,0
					c-2.87-2.87-2.87-7.18,0-9.34C273.8,124.38,277.39,124.38,280.27,127.25z"
          />
        </g>
      </g>
    </g>
    <g transform="translate(67,0)">
      <g transform="matrix(1,0,0,1,0,0)">
        <g transform="scale(1)">
          <g transform="translate(0,46.939998626708984)">
            <g transform="scale(0.95682)">
              <path
                class="st1"
                d="M161.57,400.01c-1.82,0-3.25-0.53-4.32-1.59c-1.05-1.06-1.57-2.47-1.57-4.22l0,0v-48.95h-16.5
							c-3.63,0-5.45-1.6-5.45-4.8l0,0c0-3.22,1.82-4.82,5.45-4.82l0,0h44.7c3.62,0,5.42,1.61,5.42,4.82l0,0c0,3.2-1.81,4.8-5.42,4.8
							l0,0h-16.5v48.95c0,1.75-0.53,3.16-1.59,4.22C164.73,399.47,163.32,400.01,161.57,400.01L161.57,400.01z M220.86,400.35
							c-6.22,0-11.61-1.33-16.18-3.99c-4.55-2.65-8.07-6.45-10.55-11.42c-2.49-4.95-3.74-10.75-3.74-17.4l0,0
							c0-6.65,1.23-12.43,3.69-17.35c2.45-4.92,5.96-8.72,10.55-11.38c4.6-2.66,10.01-3.99,16.22-3.99l0,0
							c6.23,0,11.63,1.33,16.2,3.99c4.55,2.66,8.05,6.45,10.5,11.38c2.46,4.92,3.69,10.71,3.69,17.35l0,0
							c0,6.65-1.25,12.45-3.74,17.4c-2.48,4.97-5.99,8.78-10.55,11.42C232.39,399.02,227.02,400.35,220.86,400.35L220.86,400.35z
							 M220.86,391.03c5.88,0,10.46-2.03,13.75-6.09c3.29-4.05,4.94-9.85,4.94-17.4l0,0c0-7.55-1.65-13.34-4.94-17.35
							c-3.29-4.02-7.88-6.02-13.75-6.02l0,0c-5.92,0-10.53,2.01-13.82,6.02c-3.29,4.02-4.94,9.8-4.94,17.35l0,0
							c0,7.55,1.65,13.35,4.94,17.4C210.32,389,214.93,391.03,220.86,391.03L220.86,391.03z M291.49,400.35
							c-6.23,0-11.62-1.33-16.18-3.99c-4.57-2.65-8.09-6.45-10.57-11.42c-2.48-4.95-3.72-10.75-3.72-17.4l0,0
							c0-6.65,1.22-12.43,3.67-17.35c2.45-4.92,5.97-8.72,10.57-11.38c4.58-2.66,9.99-3.99,16.22-3.99l0,0
							c6.23,0,11.62,1.33,16.18,3.99c4.57,2.66,8.08,6.45,10.52,11.38c2.45,4.92,3.67,10.71,3.67,17.35l0,0
							c0,6.65-1.24,12.45-3.72,17.4c-2.48,4.97-6,8.78-10.57,11.42C303.02,399.02,297.66,400.35,291.49,400.35L291.49,400.35z
							 M291.49,391.03c5.86,0,10.44-2.03,13.73-6.09c3.29-4.05,4.94-9.85,4.94-17.4l0,0c0-7.55-1.65-13.34-4.94-17.35
							c-3.29-4.02-7.87-6.02-13.73-6.02l0,0c-5.92,0-10.53,2.01-13.82,6.02c-3.29,4.02-4.94,9.8-4.94,17.35l0,0
							c0,7.55,1.65,13.35,4.94,17.4C280.96,389,285.57,391.03,291.49,391.03L291.49,391.03z M339.17,399.54
							c-1.75,0-3.11-0.48-4.06-1.45c-0.97-0.97-1.45-2.3-1.45-3.99l0,0v-53.12c0-1.75,0.52-3.16,1.57-4.22
							c1.06-1.05,2.47-1.57,4.22-1.57l0,0c1.82,0,3.25,0.52,4.32,1.57c1.06,1.06,1.59,2.47,1.59,4.22l0,0v48.97h25.45
							c3.63,0,5.45,1.6,5.45,4.8l0,0c0,3.2-1.82,4.8-5.45,4.8l0,0H339.17z M404.92,400.35c-4.66,0-9.06-0.62-13.2-1.85
							c-4.14-1.25-7.51-2.92-10.11-5.03l0,0c-1.38-1.03-2.08-2.48-2.08-4.36l0,0c0-1.26,0.38-2.36,1.13-3.3
							c0.75-0.94,1.65-1.41,2.68-1.41l0,0c1.08,0,2.32,0.42,3.72,1.27l0,0c2.6,1.88,5.32,3.24,8.15,4.08
							c2.85,0.85,5.99,1.27,9.44,1.27l0,0c4.42,0,7.8-0.77,10.15-2.31c2.35-1.55,3.53-3.81,3.53-6.76l0,0c0-2.29-1.1-4.06-3.3-5.31
							c-2.22-1.25-5.89-2.44-11.03-3.58l0,0c-5.31-1.15-9.62-2.48-12.95-3.99c-3.32-1.51-5.83-3.44-7.52-5.79
							c-1.69-2.37-2.54-5.36-2.54-8.98l0,0c0-3.75,1.05-7.11,3.16-10.06c2.12-2.97,5.07-5.28,8.84-6.95
							c3.78-1.66,8.03-2.49,12.74-2.49l0,0c8.65,0,15.68,2.3,21.12,6.9l0,0c0.78,0.66,1.35,1.31,1.68,1.94s0.51,1.43,0.51,2.4l0,0
							c0,1.28-0.38,2.38-1.13,3.3c-0.77,0.94-1.66,1.41-2.68,1.41l0,0c-0.62,0-1.18-0.08-1.68-0.25c-0.51-0.18-1.18-0.52-2.03-1.02
							l0,0c-2.48-1.8-4.88-3.14-7.22-4.02c-2.32-0.88-5.18-1.32-8.56-1.32l0,0c-4.11,0-7.35,0.83-9.74,2.49
							c-2.38,1.66-3.58,3.97-3.58,6.92l0,0c0,2.48,1.05,4.38,3.16,5.72c2.12,1.32,5.72,2.56,10.8,3.72l0,0
							c5.37,1.2,9.73,2.55,13.08,4.04c3.35,1.48,5.92,3.36,7.71,5.65c1.78,2.29,2.68,5.16,2.68,8.61l0,0c0,3.75-1.04,7.07-3.12,9.95
							c-2.09,2.86-5.03,5.09-8.82,6.69C414.14,399.55,409.81,400.35,404.92,400.35L404.92,400.35z"
              />
            </g>
          </g>
        </g>
      </g>
    </g>
  </g>
  <g transform="translate(107.87850189208984,92.5237045288086)">
    <g>
      <g transform="matrix(1,0,0,1,0,0)">
        <g transform="scale(1)">
          <g transform="translate(0, 0)">
            <g>
              <g>
                <path
                  class="st2"
                  d="M107.12,340.62c8.21,0,14.86-6.65,14.86-14.86c0,0,0-0.01,0-0.01V194.89c0-8.21-6.66-14.86-14.86-14.86
								c-8.2,0-14.86,6.65-14.86,14.86v130.86C92.26,333.96,98.91,340.62,107.12,340.62z"
                />
                <path
                  class="st3"
                  d="M201.14,336.44c5.9-5.7,6.06-15.11,0.36-21.01l-51.83-53.67c-1.86-1.92-1.86-4.96,0-6.87l48.01-49.67
								c5.7-5.92,5.52-15.34-0.4-21.04s-15.34-5.52-21.04,0.4l-35.81,37.09c-0.88,0.91-1.38,2.13-1.38,3.4v66.46
								c0,1.28,0.5,2.51,1.38,3.44l39.68,41.12C185.83,341.98,195.23,342.14,201.14,336.44z"
                />
              </g>
            </g>
          </g>
          <g transform="translate(35.305348349803374, 0)">
            <g>
              <g>
                <path
                  class="st4"
                  d="M328.44,285.74l8.32,42.81c1.48,8.07,9.22,13.4,17.29,11.92s13.4-9.22,11.92-17.29
								c-0.02-0.1-0.04-0.2-0.06-0.31l-17.13-88.19c-0.43-1.89-2.31-3.08-4.2-2.65c-1.13,0.26-2.07,1.06-2.49,2.14l-12.37,34.57
								C327.77,274.2,327.33,280.07,328.44,285.74L328.44,285.74z"
                />
                <path
                  class="st5"
                  d="M336.98,197.5c3.61-10.12-6.17-20.26-16.24-16.46c-3.91,1.44-7.04,4.47-8.59,8.34l-32.08,79.38
								c-0.63,1.52-2.38,2.23-3.89,1.6c-0.72-0.3-1.29-0.87-1.6-1.6c-33.64-83.2-32.25-79.9-32.79-80.87
								c-1.74-3.26-4.66-5.75-8.16-6.96c-7.74-2.72-16.23,1.34-18.95,9.09c-0.24,0.67-0.43,1.36-0.56,2.07l-25.42,130.79
								c-1.57,8.05,3.69,15.85,11.74,17.42c8.05,1.57,15.85-3.69,17.42-11.74l0,0l15.85-81.52c31.63,78.23,29.92,74.08,30.45,75.11
								c3.83,7.26,12.82,10.04,20.08,6.2c3.1-1.63,5.52-4.31,6.83-7.55l16.84-41.65L336.98,197.5z"
                />
              </g>
            </g>
          </g>
          <g transform="translate(90.646943356475, 0)">
            <g>
              <g>
                <path
                  class="st4"
                  d="M374.29,270.92c6.73,2.05,13.14,3.47,18.58,5.61c20.34,8.12,15.46,25.41,2.15,32.03
								c-1.72,0.84-2.81,2.58-2.83,4.49v21.59c0.01,2.81,2.29,5.07,5.1,5.06c0.46,0,0.93-0.07,1.37-0.19
								c45.29-12.49,54.44-71.57,5.46-91.12c-7.39-2.95-14.59-4.54-21.02-6.5c-11.73-3.51-18.82-8.89-19.97-14.97
								c-0.91-4.81,1.83-10.29,5-12.79c1.19-0.94,2.48-1.77,3.84-2.46c1.69-0.86,2.75-2.59,2.75-4.49v-21.54
								c0.02-2.81-2.24-5.1-5.05-5.12c-0.48,0-0.95,0.06-1.41,0.19c-6.89,1.92-13.33,5.18-18.95,9.59
								c-10.4,8.21-19.38,24.51-16.01,42.26C335.26,242.87,343.16,261.48,374.29,270.92z"
                />
                <path
                  class="st2"
                  d="M398.5,180.18c-2.72-0.68-5.48,0.99-6.16,3.71c-0.1,0.39-0.15,0.8-0.15,1.2v21.25
								c0,2.04,1.23,3.88,3.11,4.66c4.22,1.66,7.76,4.71,10.02,8.64c3.99,7.37,13.2,10.12,20.58,6.13
								c7.37-3.99,10.12-13.2,6.13-20.58l0,0C425.63,193.34,413.79,183.9,398.5,180.18z"
                />
                <path
                  class="st3"
                  d="M376.16,335.59v-20.98c-0.01-2.18-1.41-4.1-3.47-4.8c-5.81-2.04-10.6-5.77-13.09-10.51
								c-3.35-7.69-12.3-11.21-20-7.86s-11.21,12.3-7.86,20c0.2,0.45,0.42,0.9,0.66,1.33c7.14,14.14,21.17,24.25,37.57,27.73
								c2.74,0.61,5.46-1.11,6.07-3.85C376.11,336.29,376.15,335.94,376.16,335.59z"
                />
              </g>
            </g>
          </g>
        </g>
      </g>
    </g>
  </g>
</svg>
