<svg viewBox="0 0 1024 1024" xmlns="http://www.w3.org/2000/svg">
  <path
    d="M232.588 295.932C240.248 165.692 348.106 64 478.564 64h65.878c130.12 0 237.686 101.428 245.324 231.322 2.196 37.05-26.074 68.852-63.122 71.03-37.05 2.18-68.86-26.086-71.032-63.136C652.14 244.36 603.4 198.4 544.442 198.4h-65.88c-59.292 0-108.326 46.224-111.798 105.424l-12.476 212.122c-2.172 37.05-33.98 65.318-71.03 63.138-37.05-2.18-65.32-33.98-63.146-71.03l12.476-212.122z"
    fill="#FCBF28"
  ></path>
  <path
    d="M116.064 505.074c4.368-38.786 32.86-65.728 71.658-70.024 54.52-6.04 153.126-12.65 323.478-12.65 175.056 0 273.348 6.98 326.01 13.146 35.392 4.146 61.958 28.14 66.954 63.43 5.264 37.086 10.236 97.26 10.236 192.224 0 94.976-4.972 155.142-10.236 192.214-4.996 35.302-31.562 59.294-66.954 63.438C784.548 953.012 686.256 960 511.2 960c-175.056 0-273.348-6.988-326.01-13.148-35.392-4.144-61.958-28.136-66.954-63.438C112.972 846.342 108 786.176 108 691.2c0-89.93 3.83-148.658 8.064-186.126z"
    fill="#A871FF"
  ></path>
  <path
    d="M399.2 691.2c0-22.628 17.114-41.502 39.716-42.766A1306.13 1306.13 0 0 1 511.2 646.4c28.068 0 53.066 0.96 72.284 2.034 22.602 1.264 39.716 20.138 39.716 42.766 0 22.624-17.114 41.508-39.716 42.76-19.22 1.076-44.216 2.04-72.284 2.04-28.068 0-53.066-0.964-72.284-2.04-22.602-1.252-39.716-20.136-39.716-42.76z"
    fill="#FFFFFF"
  ></path>
</svg>
