<svg viewBox="0 0 1024 1024" xmlns="http://www.w3.org/2000/svg">
  <path
    d="M980.736 934.217143c0 25.636571-20.845714 46.518857-46.518857 46.518857H483.145143c-25.6 0-46.445714-20.845714-46.445714-46.518857v-303.616h114.578285a79.433143 79.433143 0 0 0 79.36-79.323429V436.662857h303.579429c25.636571 0 46.518857 20.845714 46.518857 46.518857v451.035429z m-46.518857-540.781714h-303.616V79.323429A79.433143 79.433143 0 0 0 551.241143 0H79.36A79.433143 79.433143 0 0 0 0 79.36v471.917714a79.433143 79.433143 0 0 0 79.36 79.36h314.038857v303.579429A89.892571 89.892571 0 0 0 483.108571 1024h451.072A89.892571 89.892571 0 0 0 1024 934.217143V483.181714a89.892571 89.892571 0 0 0-89.782857-89.746285zM334.518857 318.829714h88.941714V246.052571H334.518857v72.704z m-132.242286 0h88.941715V246.052571H202.276571v72.704z m264.411429-79.981714v87.149714a36.096 36.096 0 0 1-36.022857 36.096h-96.182857v109.421715a21.650286 21.650286 0 0 1-43.264 0V362.093714H195.072a36.096 36.096 0 0 1-36.022857-36.132571V238.848c0-19.858286 16.201143-36.022857 36.059428-36.022857h96.182858V164.681143a21.650286 21.650286 0 0 1 43.264 0v38.144h96.146285c19.858286 0 35.986286 16.164571 35.986286 36.022857z m278.418286-109.750857a21.650286 21.650286 0 0 1-19.821715-23.332572 21.833143 21.833143 0 0 1 23.259429-19.748571c65.645714 5.12 190.756571 52.699429 194.56 195.876571a21.686857 21.686857 0 0 1-21.101714 22.198858h-0.585143a21.650286 21.650286 0 0 1-21.577143-21.101715c-3.693714-139.702857-148.553143-153.380571-154.733714-153.965714v0.073143zM290.523429 876.507429a21.650286 21.650286 0 0 1-8.265143 42.459428c-166.948571-32.438857-187.538286-196.022857-187.757715-197.632a21.650286 21.650286 0 1 1 43.008-4.973714c0.658286 5.485714 17.627429 133.814857 153.014858 160.182857z m394.349714-123.904l39.789714-100.937143 38.692572 100.937143h-78.518858 0.036572z m60.233143-168.411429a21.650286 21.650286 0 0 0-20.114286-13.897143h-0.109714a21.650286 21.650286 0 0 0-20.114286 13.714286l-100.388571 254.976a21.650286 21.650286 0 0 0 40.228571 15.872l23.259429-58.953143h112.091428l22.528 58.770286a21.650286 21.650286 0 1 0 40.411429-15.506286l-97.792-254.976z"
    fill="#0080AB"
  ></path>
</svg>
