<svg viewBox="0 0 1024 1024" xmlns="http://www.w3.org/2000/svg">
  <path
    d="M442.6752 55.1936c-16.64 373.0432 141.1584 582.656 473.2928 628.9408-2.048-1.0752 17.152-41.1648 57.6-120.1152l-16.2304-390.5024L764.928 39.936l-322.2016 15.36z"
    fill="#20C997"
  ></path>
  <path
    d="M512 716.8a51.2 51.2 0 1 1 0 102.4H256a256 256 0 0 1-256-256V256a256 256 0 0 1 256-256h512a256 256 0 0 1 256 256v307.2a256 256 0 0 1-256 256 51.2 51.2 0 1 1 0-102.4 153.6 153.6 0 0 0 153.6-153.6V256a153.6 153.6 0 0 0-153.6-153.6H256a153.6 153.6 0 0 0-153.6 153.6v307.2a153.6 153.6 0 0 0 153.6 153.6h256z m-269.1072 179.8656h538.2144a63.6928 63.6928 0 0 1 0 127.3344H242.8928a63.6928 63.6928 0 0 1 0-127.3344zM307.2 307.2a51.2 51.2 0 0 1 51.2 51.2v204.8a51.2 51.2 0 0 1-102.4 0V358.4a51.2 51.2 0 0 1 51.2-51.2z m204.8 102.4a51.2 51.2 0 0 1 51.2 51.2v102.4a51.2 51.2 0 0 1-102.4 0V460.8a51.2 51.2 0 0 1 51.2-51.2z m204.8-204.8a51.2 51.2 0 0 1 51.2 51.2v307.2a51.2 51.2 0 0 1-102.4 0V256a51.2 51.2 0 0 1 51.2-51.2z"
    fill="#2C6DD2"
  ></path>
</svg>
