<svg viewBox="0 0 1024 1024" xmlns="http://www.w3.org/2000/svg">
  <path
    d="M739.530297 121.905859l28.466887 48.741864v365.717577h170.647723V170.647723l30.719662-48.741864-30.719662-121.905859H767.997184z"
    fill="#90A4AE"
  ></path>
  <path
    d="M853.346645 146.276791C936.648129 146.276791 938.644907 0 938.644907 0H767.997184s2.252775 146.276791 85.349461 146.276791z"
    fill="#B0BEC5"
  ></path>
  <path
    d="M736.970325 536.3653h232.701441l51.76263 209.405697c1.689581 6.655927 2.559972 13.465452 2.559972 20.274976v160.407836c0 25.855716-11.980668 50.687442-33.279634 68.965641a124.056235 124.056235 0 0 1-80.485515 28.569286h-113.765148c-30.207668 0-59.13535-10.239887-80.485515-28.569286-21.350165-18.278199-33.279634-43.109926-33.279634-68.965641v-160.407836c0-6.809525 0.819191-13.61905 2.559972-20.223777l51.711431-209.405697z"
    fill="#3F51B5"
  ></path>
  <path
    d="M739.530297 438.830373h227.581497c18.943792 0 28.415687 8.19191 28.415687 24.422131V511.994368c0 16.230221-9.471896 24.370932-28.415687 24.370932h-227.581497c-18.943792 0-28.415687-8.14071-28.415687-24.370932v-48.741864c0-16.281421 9.471896-24.422131 28.415687-24.422131z"
    fill="#5C6BC0"
  ></path>
  <path
    d="M142.237667 337.199491v540.512454C142.237667 958.453457 218.627227 1023.988736 312.834191 1023.988736c94.258163 0 170.647723-65.535279 170.647723-146.276791V337.199491H142.237667zM312.834191 950.773541c-47.103482 0-85.349461-32.76764-85.349461-73.112795 0-40.447555 38.245979-73.163995 85.349461-73.163995s85.349461 32.76764 85.349461 73.163995-38.19478 73.112796-85.349461 73.112795z"
    fill="#FF9800"
  ></path>
  <path d="M483.533113 396.181242H142.237667v51.916229l341.295446 100.453295V396.181242z" fill="#EF6C00"></path>
  <path
    d="M451.99426 24.370932v239.920561H173.77652V24.370932C67.896085 69.426436 0.722424 161.79022 0.005632 263.062706c0.307197 99.480506 84.53027 184.164374 199.11461 200.189798 37.580387 5.375941 75.621568 8.19191 113.765148 8.294309a818.627795 818.627795 0 0 0 113.765149-8.294309c114.686738-16.025424 198.961011-100.862891 199.165809-200.445795-0.819191-101.221287-68.044052-193.431472-173.822088-238.435777z"
    fill="#FF9800"
  ></path>
</svg>
