<svg viewBox="0 0 1024 1024" xmlns="http://www.w3.org/2000/svg">
  <path
    d="M511.887385 0.222671C138.27358 0.222671 0 327.126752 0 510.44642201S132.89876199 1023.997441 501.00977801 1023.997441c0 0 91.49986999 1.599648 91.49986999-80.942193s-41.142949-56.17964-41.142949-115.558577a78.702685 78.702685 0 0 1 60.91459899-85.86910899 680.746236 680.746236 0 0 0 222.22311101-18.235988A296.638739 296.638739 0 0 0 1023.77476999 454.522725 499.0902 499.0902 0 0 0 511.887385 0.222671zM199.82803801 512.110056a89.196377 89.196377 0 1 1 88.87644699-89.196377A89.004419 89.004419 0 0 1 199.82803801 512.110056z m167.64311799-220.687449a89.196377 89.196377 0 1 1 88.876448-89.19637699 89.004419 89.004419 0 0 1-88.876448 89.26036299z m285.057288 0a89.196377 89.196377 0 1 1 88.876447-89.19637699A89.068405 89.068405 0 0 1 652.656416 291.486593zM821.77121001 512.110056a89.196377 89.196377 0 1 1 88.87644798-89.196377A89.068405 89.068405 0 0 1 821.77121001 512.110056z"
    fill="#FAD263"
  ></path>
  <path
    d="M821.77121001 512.110056a89.196377 89.196377 0 1 1 88.87644798-89.196377A89.068405 89.068405 0 0 1 821.77121001 512.110056z"
    fill="#33A0BF"
  ></path>
  <path
    d="M652.656416 291.486593a89.196377 89.196377 0 1 1 88.876447-89.196377A89.068405 89.068405 0 0 1 652.656416 291.486593z"
    fill="#96BE2A"
  ></path>
  <path
    d="M367.471156 291.486593a89.196377 89.196377 0 1 1 88.876448-89.196377 89.004419 89.004419 0 0 1-88.876448 89.196377z"
    fill="#F26D5C"
  ></path>
  <path
    d="M199.82803801 512.110056a89.196377 89.196377 0 1 1 88.87644699-89.196377A89.004419 89.004419 0 0 1 199.82803801 512.110056z"
    fill="#466381"
  ></path>
</svg>
