<svg viewBox="0 0 1024 1024" xmlns="http://www.w3.org/2000/svg">
  <path
    d="M912.695652 1024H111.304348a89.043478 89.043478 0 0 1-89.043478-89.043478V89.043478a89.043478 89.043478 0 0 1 89.043478-89.043478h801.391304a89.043478 89.043478 0 0 1 89.043478 89.043478v845.913044a89.043478 89.043478 0 0 1-89.043478 89.043478z m22.26087-912.695652a44.521739 44.521739 0 0 0-44.521739-44.521739H133.565217a44.521739 44.521739 0 0 0-44.521739 44.521739v801.391304a44.521739 44.521739 0 0 0 44.521739 44.521739h756.869566a44.521739 44.521739 0 0 0 44.521739-44.521739V111.304348z m-211.478261 155.826087h-467.478261a33.391304 33.391304 0 0 1 0-66.782609h467.478261a33.391304 33.391304 0 0 1 0 66.782609z m-467.478261 133.565217h111.304348a33.391304 33.391304 0 0 1 0 66.782609h-111.304348a33.391304 33.391304 0 0 1 0-66.782609z"
    fill="#388CEB"
  ></path>
  <path
    d="M864.612174 845.690435a33.213217 33.213217 0 0 1-47.215304 0l-90.223305-90.156522a200.214261 200.214261 0 1 1 49.931131-44.521739l87.507478 87.485217a33.391304 33.391304 0 0 1 0 47.193044z m-165.286957-338.365218a111.304348 111.304348 0 1 0 0 157.384348 111.014957 111.014957 0 0 0 0-157.384348z"
    fill="#E78E00"
  ></path>
</svg>
