<svg t="1724382477312" class="icon" viewBox="0 0 1024 1024" version="1.1" xmlns="http://www.w3.org/2000/svg">
  <path
    d="M895.573333 652.096a21.504 21.504 0 0 0-20.693333-5.504A406.186667 406.186667 0 0 1 768 661.333333c-223.509333 0-405.333333-181.824-405.333333-405.333333 0-35.136 4.949333-71.104 14.741333-106.88a21.333333 21.333333 0 0 0-26.197333-26.218667C156.970667 175.957333 21.333333 353.514667 21.333333 554.666667c0 247.04 200.96 448 448 448 201.173333 0 378.709333-135.637333 431.744-329.856a21.333333 21.333333 0 0 0-5.504-20.714667z"
    fill="#EFD358" p-id="23514"></path>
  <path
    d="M725.333333 106.666667c-35.285333 0-64-28.714667-64-64a21.333333 21.333333 0 1 0-42.666666 0c0 35.285333-28.714667 64-64 64a21.333333 21.333333 0 1 0 0 42.666666c35.285333 0 64 28.714667 64 64a21.333333 21.333333 0 1 0 42.666666 0c0-35.285333 28.714667-64 64-64a21.333333 21.333333 0 1 0 0-42.666666zM981.333333 362.666667c-35.285333 0-64-28.714667-64-64a21.333333 21.333333 0 1 0-42.666666 0c0 35.285333-28.714667 64-64 64a21.333333 21.333333 0 1 0 0 42.666666c35.285333 0 64 28.714667 64 64a21.333333 21.333333 0 1 0 42.666666 0c0-35.285333 28.714667-64 64-64a21.333333 21.333333 0 1 0 0-42.666666z"
    fill="#C6C6C6" p-id="23515"></path>
</svg>