<svg viewBox="0 0 1024 1024" xmlns="http://www.w3.org/2000/svg">
  <path
    d="M957.18308134 589.39678552c-5.3852792 0-6.35186779-1.65700898-5.38527921-7.18037228 4.28060655-25.8217234 8.97546534-51.64344678 11.73714701-77.60325427 4.83294288-43.91073817 5.10911105-87.82147635-2.62359757-131.45604634-6.76612003-38.66354305-18.91751926-75.11774077-39.90629978-107.7055842-10.35630617-16.01775355-22.23153725-30.93083443-33.00209567-46.67241983-1.93317715-2.89976573-3.31401797-7.59462453-2.76168165-11.04672657 4.55677472-28.72148912 7.04228819-57.58106231 6.48995187-86.71680369-0.55233633-27.06448014-3.86635431-53.71470801-13.94649231-78.84601099-6.90420412-17.39859437-10.49439025-20.43644418-28.44532096-17.67476255-16.84625804 2.62359757-33.69251609 6.62803595-49.71026964 12.5656515-40.73480429 14.91308089-78.15559058 37.28270222-114.74787238 61.30933254-2.3474294 1.51892491-5.93761554 2.07126124-8.83738127 1.51892491-5.93761554-0.96658859-11.737147-3.0378498-17.67476253-4.28060655-42.52989734-8.69929718-85.47404695-11.87523108-128.69436472-12.28948334-40.18246795-0.41425225-80.22685182 1.24275675-119.99506751 7.87079271-19.6079397 3.31401797-39.0777953 8.5612131-58.27148273 14.08457638-6.35186779 1.79509307-10.63247434 1.65700898-16.01775356-2.34742939-28.72148912-21.40303275-58.82381906-40.45863612-91.2735784-54.81938068-27.89298463-12.28948332-56.33830558-21.817285-87.13105594-21.54111684-5.24719513 0-8.42312903 1.65700898-10.63247432 7.18037228-12.56565149 30.79275037-18.64135111 62.96634153-19.74602379 96.38268945-0.96658859 31.34508668 1.79509307 62.27592112 9.66588577 92.65441923 1.38084082 5.3852792 0.27616816 9.11354943-3.03784981 13.2560719-7.18037229 9.25163351-13.80840823 18.91751926-20.57452827 28.44532095-24.02663031 33.96868425-39.21587937 71.80372281-44.18690632 114.19553607-3.59018613 30.24041403-3.31401797 60.48082805-1.93317716 90.85932616 1.38084082 31.62125485 5.66144737 62.82825745 12.97990373 93.62100779 1.93317715 8.42312903 4.28060655 16.70817396 6.90420412 26.92639605-11.737147 0-22.09345317-0.41425225-32.58784343 0-38.66354305 1.51892491-77.32708608 2.76168163-115.99062913 5.24719513-10.77055842 0.69042042-7.59462453 1.51892491-18.36518295 2.34742941v11.18481066c4.00443838-0.41425225 8.00887677-0.69042042 12.01331515-1.10467266 37.14461813-3.0378498 60.61891214-4.55677472 97.90161437-6.35186777 18.36518295-0.8285045 36.5922818-1.10467265 54.95746475-1.38084084 2.07126124 0 5.3852792 0.41425225 5.93761554 1.65700899 4.00443838 8.5612131 7.31845635 17.26051028 11.46097883 27.3406483h-7.18037227c-10.90864251 0.41425225-21.817285 0.27616816-32.58784343 1.24275673-38.11120672 3.31401797-76.36049751 6.2137837-114.33362015 10.90864252-13.9464923 1.79509307-14.08457639 3.86635431-28.03106871 6.35186777v11.0467266c16.98434213-3.0378498 20.2983601-5.5233633 37.42078631-7.87079269 48.05326064-6.35186779 96.24460537-9.80396985 144.71211825-11.0467266 4.55677472-0.13808409 6.76612003 1.51892491 8.97546535 5.5233633 13.9464923 25.54555523 31.48317076 47.91517657 52.47195128 67.38503217 32.7259275 30.24041403 70.83713422 50.40069004 111.71002258 64.48526643 38.11120672 13.11798782 77.18900202 20.85069643 116.95721771 25.26938706 1.93317715 0.27616816 3.86635431 0.69042042 5.66144738 1.10467266 0.55233633 0.8285045 1.24275675 1.79509307 1.79509306 2.62359757-2.07126124 1.24275675-4.41869063 2.20934532-6.21378369 3.86635429-20.57452827 19.74602377-36.86844997 42.80606551-42.11564511 72.21797505-1.93317715 11.18481067-7.87079269 15.18924905-16.15583763 18.50326702-0.41425225 0.13808409-0.8285045 0.27616816-1.10467265 0.41425225-27.89298463 11.18481067-56.61447375 12.28948332-85.75021512 8.83738127-27.47873238-3.1759339-49.71026963-16.15583763-66.83269582-39.07779529-12.01331517-16.01775355-23.88854624-32.31167525-36.17802957-48.05326065-16.15583763-20.71261235-33.69251609-39.90629979-59.37615539-47.22475614-15.05116498-4.28060655-30.3784981-4.83294288-45.15349492 1.24275674-7.18037229 2.89976573-8.69929718 9.11354943-4.0044384 15.46541722 3.59018613 4.69485881 8.00887677 9.11354943 12.84181966 12.42756742 30.3784981 20.85069643 53.71470801 47.91517657 68.90395708 82.98853346 7.18037229 16.43200579 14.22266047 33.14017975 23.19812582 48.46751288 21.54111683 36.5922818 53.30045577 58.27148273 93.06867148 66.14227543 33.69251609 6.76612003 67.52311625 3.59018613 101.21563233-0.41425225 5.5233633-0.69042042 7.18037229 0.55233633 7.18037228 6.35186778v12.84181967h70.1467138c0.13808409-16.84625804 0.13808409-33.83060016 0.41425226-50.67685822 0.13808409-9.94205392 1.93317715-20.02219194 4.28060655-29.54999362 2.89976573-11.32289475 8.42312903-21.40303275 18.08901478-29.82616177 0.41425225 2.76168163 0.8285045 4.28060655 0.82850449 5.93761555 0.13808409 9.80396985 0.55233633 19.6079397 0.41425225 29.41190953-0.27616816 24.9932189-0.41425225 49.84835372-0.69042041 74.8415726h78.0175065c-0.13808409-34.10676833-0.8285045-68.35162075-1.24275675-102.45838907-0.13808409-14.49882864-0.41425225-14.36074457 12.84181965-15.18924906 4.97102697-0.27616816 6.76612003 1.24275675 6.76612005 6.76612005 0 22.64578949 0.55233633 45.291579 0.55233633 67.93736848 0 14.36074457 0.13808409 28.72148912 0.13808407 43.08223369H608.65885762v-100.24904377c0-2.20934532 0.27616816-4.41869063 0.55233631-6.9042041 8.00887677 0.55233633 11.59906291 5.93761554 14.36074458 12.01331515 6.90420412 15.46541722 8.14696086 32.17359118 8.42312902 48.74368106 0.27616816 15.46541722 0.41425225 31.06891852 0.55233632 46.53433574h72.21797505c0-15.6035013-0.13808409-31.2070026 0-46.81050391 0.13808409-29.13574137-1.38084082-58.13339866-7.0422882-86.5787196-5.5233633-28.0310687-16.84625804-52.88620353-38.2492908-71.52755463-4.69485881-4.14252247-9.66588576-8.00887677-15.74158538-12.97990373 7.31845635-1.10467265 13.39415599-2.07126124 19.46985561-2.89976574 46.8105039-5.79953147 92.79250331-14.7749968 136.97940964-32.58784343 54.81938068-21.95536909 99.28245518-57.44297824 126.4850194-113.78128381 4.83294288-10.08013802 9.3897176-14.63691274 20.9887805-13.53224006 33.83060016 3.1759339 67.9373685 4.00443838 101.90605275 7.04228819 28.30723687 2.48551348 15.05116498 2.07126124 43.22031775 6.21378371 2.76168163 0.41425225 5.3852792 0.8285045 8.14696085 1.24275673v-11.18481067c-5.5233633-0.8285045-11.04672658-1.51892491-16.70817395-2.2093453-41.01097245-4.97102697-40.73480429-4.97102697-81.8838608-8.83738127-18.7794352-1.79509307-37.83503855-1.93317715-56.75255784-2.76168166-7.04228819-0.27616816-7.59462453-1.10467265-4.97102696-8.423129 1.51892491-4.41869063 3.45210207-8.69929718 4.41869063-13.25607192 1.10467265-6.07569962 4.41869063-8.00887677 9.80396985-7.87079268 30.3784981 0.55233633 60.8950803 0.27616816 91.27357842 1.65700898 32.03550709 1.38084082 22.78387358 1.79509307 54.81938065 4.55677472v-10.63247433c-27.61681646-2.48551348-13.80840823-3.0378498-41.42522468-4.55677472-34.10676833-2.48551348-68.21353665-1.93317715-102.320305-2.3474294z"
    fill="#707070"
  ></path>
  <path
    d="M800.7338161 408.64472178c-35.9018614-26.51214381-76.63666569-32.7259275-119.30464712-29.82616178-40.04438386 2.62359757-80.08876773 5.93761554-120.13315159 7.31845636-29.13574137 0.96658859-58.27148273-0.13808409-87.40722411-1.24275674-35.21144098-1.38084082-70.42288197-3.59018613-105.63432297-6.07569962-25.26938706-1.79509307-50.12452187-0.55233633-74.42732035 6.90420412-56.06213742 17.39859437-90.30698983 57.44297824-105.77240705 115.71446097-10.63247434 39.90629979-6.76612003 79.53643141 6.2137837 118.06189038 17.81284661 53.30045577 54.81938068 86.99297185 103.14880949 108.11983644 37.28270222 16.29392172 76.4985816 23.88854624 116.54296547 25.82172339 40.04438386 2.07126124 80.22685182 2.48551348 119.16656302 3.72827022 40.18246795-1.10467265 79.12217917-1.65700898 117.92380629-3.45210205 37.69695447-1.79509307 74.42732035-8.69929718 109.22450911-24.85513483 54.68129659-25.26938706 87.13105594-69.04204115 97.76353026-130.35137368 6.2137837-36.17802957 5.66144737-72.4941432-4.28060655-108.11983645-9.25163351-33.27826384-25.68363931-61.44741663-53.0242876-81.74577673z"
    fill="#FDBF9D"
  ></path>
  <path
    d="M549.00653407 677.49443003c-1.65700898 2.62359757-1.93317715 6.2137837-3.72827023 8.69929717-9.66588576 14.36074457-33.41634791 17.53667845-49.43410147 6.90420412-6.35186779-4.28060655-11.59906291-9.11354943-14.36074457-16.43200579-0.69042042-1.65700898-4.00443838-2.62359757-6.0756996-3.86635429-1.10467265 1.93317715-2.89976573 3.72827022-3.31401799 5.79953144-0.27616816 1.79509307 0.69042042 3.86635431 1.65700898 5.5233633 9.11354943 16.01775355 24.1647144 23.33620992 46.1200835 25.54555522 5.3852792-1.65700898 13.9464923-3.1759339 21.26494868-6.90420411 9.94205392-5.10911105 17.39859437-12.97990373 17.53667845-24.57896665 0-1.79509307-2.62359757-3.72827022-4.14252248-5.5233633-1.79509307 1.65700898-4.28060655 2.89976573-5.52336327 4.83294289zM518.48995186 615.08042482c-8.5612131-0.13808409-16.29392172 7.7327086-16.29392171 16.4320058 0 9.25163351 7.18037229 16.57008987 16.70817397 16.57008988 9.11354943 0 16.29392172-7.04228819 16.29392171-16.29392171-0.13808409-9.25163351-7.31845635-16.57008987-16.70817397-16.70817397z"
    fill="#B1403B"
  ></path>
  <path
    d="M662.23548155 481.27694907c-14.49882864 23.06004175-18.64135111 48.60559698-15.74158539 75.6700771 2.48551348 23.19812583 9.52780169 44.32499042 26.51214381 60.48082805 16.43200579 15.74158539 40.73480429 15.87966947 56.75255782-0.13808408 20.02219194-20.02219194 27.47873238-45.291579 27.06448013-76.77474975 0.69042042-18.91751926-4.14252247-39.35396347-15.32733312-58.13339866-20.71261235-34.10676833-57.99531457-34.79718875-79.26026325-1.10467266z"
    fill="#FFFFFF"
  ></path>
  <path
    d="M669.41585383 494.53302098c-11.87523108 18.08901478-15.18924905 38.24929081-12.84181966 59.51423947 2.07126124 18.22709886 7.7327086 34.79718875 21.54111685 47.63900839 13.39415599 12.42756741 33.14017975 12.56565149 46.25816756-0.13808409 16.29392172-15.74158539 22.36962133-35.62569324 22.09345317-60.34274395 0.55233633-14.91308089-3.31401797-30.93083443-12.56565148-45.70583125-16.70817396-26.92639605-47.08667206-27.47873238-64.48526644-0.96658857z"
    fill="#B1403B"
  ></path>
  <path
    d="M295.48415895 481.27694907c-14.49882864 23.06004175-18.64135111 48.60559698-15.74158538 75.6700771 2.48551348 23.19812583 9.52780169 44.32499042 26.5121438 60.48082805 16.43200579 15.74158539 40.73480429 15.87966947 56.75255783-0.13808408 20.02219194-20.02219194 27.47873238-45.291579 27.06448012-76.77474975 0.69042042-18.91751926-4.14252247-39.35396347-15.32733312-58.13339866-20.57452827-34.10676833-57.85723049-34.79718875-79.26026325-1.10467266z"
    fill="#FFFFFF"
  ></path>
  <path
    d="M302.80261531 494.53302098c-11.87523108 18.08901478-15.18924905 38.24929081-12.84181966 59.51423947 2.07126124 18.22709886 7.7327086 34.79718875 21.54111685 47.63900839 13.39415599 12.42756741 33.14017975 12.56565149 46.25816756-0.13808409 16.29392172-15.74158539 22.36962133-35.62569324 22.09345318-60.34274395 0.55233633-14.91308089-3.31401797-30.93083443-12.56565149-45.70583125-16.84625804-26.92639605-47.22475615-27.47873238-64.48526644-0.96658857z"
    fill="#B1403B"
  ></path>
  <path
    d="M63.77906883 791.55188202m-6.35186778 0a6.35186779 6.35186779 0 1 0 12.70373558 0 6.35186779 6.35186779 0 1 0-12.70373558 0Z"
    fill="#FFFFFF"
  ></path>
  <path
    d="M98.85242575 811.29790578m-6.35186779 0a6.35186779 6.35186779 0 1 0 12.70373557 0 6.35186779 6.35186779 0 1 0-12.70373557 0Z"
    fill="#FFFFFF"
  ></path>
  <path
    d="M125.36456955 838.63855408m-6.35186779 0a6.35186779 6.35186779 0 1 0 12.70373557 0 6.35186779 6.35186779 0 1 0-12.70373557 0Z"
    fill="#FFFFFF"
  ></path>
  <path
    d="M148.97694762 868.32663177m-6.35186778 0a6.35186779 6.35186779 0 1 0 12.70373557 0 6.35186779 6.35186779 0 1 0-12.70373557 0Z"
    fill="#FFFFFF"
  ></path>
  <path
    d="M175.6271755 902.29531601m-6.35186779 0a6.35186779 6.35186779 0 1 0 12.70373559 0 6.35186779 6.35186779 0 1 0-12.70373559 0Z"
    fill="#FFFFFF"
  ></path>
  <path
    d="M213.73838222 926.59811451m-6.35186779 0a6.35186779 6.35186779 0 1 0 12.70373559 0 6.35186779 6.35186779 0 1 0-12.70373559 0Z"
    fill="#FFFFFF"
  ></path>
  <path
    d="M274.21921027 932.94998229m-6.35186778 0a6.35186779 6.35186779 0 1 0 12.70373558 0 6.35186779 6.35186779 0 1 0-12.70373558 0Z"
    fill="#FFFFFF"
  ></path>
  <path
    d="M326.55307747 939.02568192m-6.35186778 0a6.35186779 6.35186779 0 1 0 12.70373556 0 6.35186779 6.35186779 0 1 0-12.70373556 0Z"
    fill="#FFFFFF"
  ></path>
</svg>
