<svg viewBox="0 0 1024 1024" xmlns="http://www.w3.org/2000/svg">
  <path
    d="M512 512m-254.86222222 0a254.86222222 254.86222222 0 1 0 509.72444444 0 254.86222222 254.86222222 0 1 0-509.72444444 0Z"
    fill="#feb948"
  ></path>
  <path
    d="M436.10112 66.77845333C437.12056889 31.39811555 460.03313778 3.54076445 495.4112 2.50766222 500.50616889 2.35975111 506.03576889 2.27555555 512 2.27555555c5.96195555 0 11.49383111 0.08419555 16.59107555 0.23210667 35.37578667 1.03310222 58.28835555 28.89045333 59.30780445 64.27079111 0.32995555 11.27765333 0.55978667 23.87285333 0.55978667 37.44199112 0 13.56913778-0.22755555 26.16433778-0.55978667 37.4419911-1.01944889 35.38033778-23.93201778 63.23768889-59.30780445 64.27079112-5.09724445 0.14791111-10.62684445 0.23210667-16.59107555 0.23210666-5.96195555 0-11.49383111-0.08419555-16.59107555-0.23210666-35.37578667-1.03310222-58.28835555-28.89045333-59.30780445-64.27079112A1275.86986667 1275.86986667 0 0 1 435.54133333 104.22044445c0-13.56913778 0.22755555-26.16433778 0.55978667-37.44199112zM436.10112 957.22154667c1.01944889 35.38033778 23.93201778 63.23768889 59.30780445 64.27079111 5.09724445 0.14791111 10.62684445 0.23210667 16.59107555 0.23210667 5.96195555 0 11.49383111-0.08419555 16.59107555-0.23210667 35.37578667-1.03310222 58.28835555-28.89045333 59.30780445-64.27079111 0.32995555-11.27765333 0.55978667-23.87285333 0.55978667-37.44199112 0-13.56913778-0.22755555-26.16433778-0.55978667-37.4419911-1.01944889-35.38033778-23.93201778-63.23768889-59.30780445-64.27079112-5.09724445-0.14791111-10.62684445-0.23210667-16.59107555-0.23210666-5.96195555 0-11.49383111 0.08419555-16.59107555 0.23210666-35.37578667 1.03310222-58.28835555 28.89045333-59.30780445 64.27079112a1275.86986667 1275.86986667 0 0 0-0.55978667 37.4419911c0 13.56913778 0.22755555 26.16433778 0.55978667 37.44199112zM66.78072889 587.90798222C31.40721778 586.86577778 3.54986667 563.96913778 2.50538667 528.5888 2.35292445 523.49383111 2.27555555 517.97333333 2.27555555 512s0.07736889-11.49383111 0.22755556-16.5888c1.04675555-35.38033778 28.90410667-58.27697778 64.27761778-59.31918222a1277.71534222 1277.71534222 0 0 1 74.87943111 0c35.37351111 1.04220445 63.23086222 23.93884445 64.27534222 59.31918222 0.15246222 5.09496889 0.22983111 10.61546667 0.22983111 16.5888s-0.07736889 11.49383111-0.22755555 16.5888c-1.04675555 35.38033778-28.90410667 58.27697778-64.27761778 59.31918222a1277.71534222 1277.71534222 0 0 1-74.87943111 0zM957.21927111 587.90798222c35.37351111-1.04220445 63.23086222-23.93884445 64.27534222-59.31918222 0.15246222-5.09496889 0.22983111-10.61546667 0.22983112-16.5888s-0.07736889-11.49383111-0.22755556-16.5888c-1.04675555-35.38033778-28.90410667-58.27697778-64.27761778-59.31918222a1277.71534222 1277.71534222 0 0 0-74.87943111 0c-35.37351111 1.04220445-63.23086222 23.93884445-64.27534222 59.31918222-0.15246222 5.09496889-0.22983111 10.61546667-0.22983111 16.5888s0.07736889 11.49383111 0.22755555 16.5888c1.04675555 35.38033778 28.90410667 58.27697778 64.27761778 59.31918222a1277.71534222 1277.71534222 0 0 0 74.87943111 0zM143.49653333 250.85724445C119.23000889 225.10023111 115.712 189.21244445 140.00128 163.46453333a536.55324445 536.55324445 0 0 1 11.5712-11.89660444 553.68817778 553.68817778 0 0 1 11.90115555-11.56664889c25.74108445-24.28700445 61.62659555-20.78037333 87.36768 3.50208a1256.94862222 1256.94862222 0 0 1 26.88796445 26.08696889 1320.66872889 1320.66872889 0 0 1 26.07104 26.86520889c24.28928 25.75473778 27.80728889 61.6448 3.51800889 87.39043555a682.63253333 682.63253333 0 0 1-11.5712 11.89432889 553.68817778 553.68817778 0 0 1-11.90115556 11.56664889c-25.74108445 24.28700445-61.62659555 20.78037333-87.39271111-3.50208a1259.38119111 1259.38119111 0 0 1-26.86293333-26.08696889 1332.81109333 1332.81109333 0 0 1-26.09834667-26.86520889zM773.15640889 880.49436445c25.74108445 24.28017778 61.62659555 27.78908445 87.36768 3.50435555a553.68817778 553.68817778 0 0 0 11.90115556-11.56892445 536.55324445 536.55324445 0 0 0 11.5712-11.89660444c24.28928-25.74563555 20.77127111-61.63569778-3.49070223-87.38816a1332.81109333 1332.81109333 0 0 0-26.09834667-26.86520889 1259.38119111 1259.38119111 0 0 0-26.86293333-26.08696889c-25.76611555-24.28017778-61.65162667-27.78908445-87.39271111-3.50435555a553.68817778 553.68817778 0 0 0-11.90115556 11.56892444 682.63253333 682.63253333 0 0 0-11.5712 11.89432889c-24.28700445 25.74791111-20.77127111 61.63569778 3.5180089 87.39043556a1320.66872889 1320.66872889 0 0 0 26.07104 26.86520888 1256.94862222 1256.94862222 0 0 0 26.88796444 26.0869689zM250.84359111 880.49436445c-25.74108445 24.28017778-61.62659555 27.78908445-87.36768 3.50435555a553.68817778 553.68817778 0 0 1-11.90115556-11.56892445 536.55324445 536.55324445 0 0 1-11.5712-11.89660444c-24.28928-25.74563555-20.77127111-61.63569778 3.49070223-87.38816a1332.81109333 1332.81109333 0 0 1 26.09834667-26.86520889 1259.38119111 1259.38119111 0 0 1 26.86293333-26.08696889c25.76611555-24.28017778 61.65162667-27.78908445 87.39271111-3.50435555a553.68817778 553.68817778 0 0 1 11.90115556 11.56892444 682.63253333 682.63253333 0 0 1 11.5712 11.89432889c24.28700445 25.74791111 20.77127111 61.63569778-3.5180089 87.39043556a1320.66872889 1320.66872889 0 0 1-26.07104 26.86520888 1256.94862222 1256.94862222 0 0 1-26.88796444 26.0869689zM880.50346667 250.85724445c24.26424889-25.75473778 27.78225778-61.6448 3.49297778-87.39043556a536.55324445 536.55324445 0 0 0-11.5712-11.89660444 553.68817778 553.68817778 0 0 0-11.90115556-11.5666489c-25.74108445-24.28700445-61.62659555-20.78037333-87.36768 3.50208a1256.94862222 1256.94862222 0 0 0-26.88796444 26.0869689 1320.66872889 1320.66872889 0 0 0-26.07104 26.86520888c-24.28928 25.75473778-27.80728889 61.6448-3.5180089 87.39043556a682.63253333 682.63253333 0 0 0 11.5712 11.89432889 553.68817778 553.68817778 0 0 0 11.90115556 11.56664889c25.74108445 24.28700445 61.62659555 20.78037333 87.39271111-3.50208a1259.38119111 1259.38119111 0 0 0 26.86293333-26.08696889 1332.81109333 1332.81109333 0 0 0 26.09834667-26.86520889z"
    fill="#FCBF28"
  ></path>
</svg>
