<svg t="1724382284437" class="icon" viewBox="0 0 1024 1024" version="1.1" xmlns="http://www.w3.org/2000/svg">
  <path
    d="M762.176 503.189333a170.666667 170.666667 0 1 0-288.085333-159.232c62.826667 26.496 115.328 73.322667 149.696 132.330667 6.592 11.306667 20.736 18.112 35.2 16.234667a226.197333 226.197333 0 0 1 103.189333 10.666666z"
    fill="#FFBB36" p-id="1170"></path>
  <path
    d="M651.477333 91.946667a13.226667 13.226667 0 0 0-22.912 0L592 155.221333a13.226667 13.226667 0 0 0 11.456 19.84h73.066667a13.226667 13.226667 0 0 0 11.456-19.84L651.477333 91.946667zM838.4 169.386667a13.226667 13.226667 0 0 1 16.213333 16.213333l-17.642666 65.770667a13.226667 13.226667 0 0 1-22.122667 5.930666L766.72 209.130667a13.226667 13.226667 0 0 1 5.930667-22.122667L838.4 169.386667z m93.653333 203.136a13.226667 13.226667 0 0 1 0 22.912l-59.008 34.069333a13.226667 13.226667 0 0 1-19.84-11.456v-68.117333a13.226667 13.226667 0 0 1 19.84-11.456l58.986667 34.048zM425.386667 185.6a13.226667 13.226667 0 0 1 16.213333-16.192l70.549333 18.922667a13.226667 13.226667 0 0 1 5.930667 22.122666l-51.669333 51.669334a13.226667 13.226667 0 0 1-22.122667-5.930667l-18.901333-70.592z"
    fill="#FF9315" p-id="1171"></path>
  <path
    d="M64 640c0 164.949333 130.368 298.666667 291.2 298.666667h332.8C802.88 938.666667 896 843.157333 896 725.333333s-93.12-213.333333-208-213.333333c-8.896 0-17.664 0.576-26.261333 1.685333-22.229333 2.88-45.098667-7.317333-56.384-26.666666C554.517333 399.786667 461.504 341.333333 355.2 341.333333 194.368 341.333333 64 475.050667 64 640z"
    fill="#B1CEEE" p-id="1172"></path>
</svg>