<svg viewBox="0 0 1024 1024" xmlns="http://www.w3.org/2000/svg">
  <path
    d="M788.3136119 1013.07303189H237.09113447C111.92823249 1013.07303189 10.50554424 911.65034362 10.50554424 786.48744161V235.2649642c0-125.16290198 101.42268825-226.58559024 226.58559023-226.58559025h551.22247743C913.47651389 8.67937395 1014.89920214 110.1020622 1014.89920214 235.2649642v551.22247741c0 125.16290198-101.42268825 226.58559024-226.58559024 226.58559028z"
    fill="#009CF5"
  ></path>
  <path
    d="M531.52597462 593.756239h-110.27259043l83.02051076-143.28413022 8.42847824-14.60936231 56.89222816-97.77034767 10.95702173-19.10455069 23.59973911-40.45669558c10.39512317-17.69980432 10.67607246-40.4566956-1.12379712-57.17317746-10.1141739-14.32841303-24.58306155-20.08787316-38.91147456-20.08787315-16.8569565 0-33.29248906 8.70942752-42.56381515 24.44258691l-8.42847826 14.89031158-8.70942752-14.89031158c-9.27132608-15.7331594-25.84733329-24.44258691-42.56381515-24.44258691-8.42847825 0-16.8569565 1.96664492-24.7235362 6.46183331-23.31878983 13.48556519-31.32584414 43.68761226-17.69980433 67.00640208l36.66388039 63.35406149-148.34121718 255.94478949H211.38427582c-29.49967387 0.28094928-53.09941297 26.40923185-48.46374995 57.17317745 3.65234059 24.16163763 26.26875721 41.01859413 50.71134413 41.01859414h37.22577895l113.50350707-0.28094927H590.94674625c4.21423911 0 8.42847825-1.82617031 10.95702173-5.1975616 12.92366662-17.27838042 22.47594201-44.10903616-9.13085142-71.78253973-16.71648186-14.74983693-39.05194921-21.21167023-61.24694194-21.21167028z"
    fill="#FFFFFF"
  ></path>
  <path
    d="M811.91335101 593.47528973h-94.39895639l-126.28669909-217.87616272c-2.24759422-3.79281521-7.30468114-5.05708695-10.81654708-2.52854346-17.69980432 12.78319201-28.09492751 30.62347095-33.43296371 50.2899202-8.99037681 33.15201443-1.54522102 68.69209772 15.59268476 98.47272089l27.11160503 47.05900354 14.32841301 25.00448545 56.89222819 98.05129698 5.89993479 9.8332246 54.64463394 94.39895637c9.27132608 15.7331594 25.56638403 24.44258691 42.2828659 24.44258696 8.42847825 0 17.13790576-2.24759422 25.00448544-6.74278264 23.31878983-13.48556519 31.32584414-43.40666296 17.69980434-67.00640204l-31.8877427-55.20653254h39.75432238c29.49967387 0 52.95893833-26.69018111 48.18280067-57.45412672-3.93328986-24.02116302-26.26875721-40.73764486-50.57086948-40.73764487zM300.86661988 704.7312026c-17.27838042-7.02373185-33.57343836-6.18088405-46.63757961-2.52854347-7.16420652 1.96664492-13.06414129 6.88325723-16.71648188 13.20461593l-18.26170287 31.18536952c-13.76651447 23.59973909-5.61898549 53.52083689 17.69980432 67.00640206 7.8665797 4.49518839 16.57600721 6.74278258 25.00448546 6.7427826 16.8569565 0 33.01153979-8.70942752 42.0019166-24.44258694l20.79024634-35.82103254c5.05708695-8.84990215 6.04040943-19.52597462 2.24759422-28.9377753-4.21423911-10.53559782-12.08081882-20.64977171-26.12828258-26.40923186z"
    fill="#FFFFFF"
  ></path>
</svg>
