<svg viewBox="0 0 1024 1024" xmlns="http://www.w3.org/2000/svg">
  <path
    d="M678.042337 927.155865c25.584993 0 46.434495-21.34306 46.434495-47.421611s-20.836162-47.46163-46.434495-47.46163-46.461174 21.34306-46.461174 47.46163 20.849502 47.421611 46.461174 47.421611zM838.742239 927.155865c25.598333 0 46.447834-21.34306 46.447835-47.421611s-20.849502-47.46163-46.447835-47.46163-46.461174 21.34306-46.461173 47.46163 20.849502 47.421611 46.461173 47.421611z"
    fill="#F74B5C"
  ></path>
  <path
    d="M134.8748 852.721944c-14.139777 0-25.584993 13.339412-25.584993 29.760229s11.445216 29.760229 25.584993 29.760229h375.197655c14.126438 0 25.584993-13.339412 25.584993-29.760229s-11.458555-29.760229-25.584993-29.760229zM678.055676 558.76131c25.584993 0 46.434495-21.276363 46.434495-47.43495s-20.822823-47.434951-46.434495-47.434951-46.447834 21.34306-46.447834 47.434951 20.849502 47.434951 46.447834 47.43495zM838.755579 558.76131c25.598333 0 46.447834-21.276363 46.447834-47.43495s-20.849502-47.434951-46.447834-47.434951-46.447834 21.34306-46.447835 47.434951 20.849502 47.434951 46.447835 47.43495z"
    fill="#2194F7"
  ></path>
  <path
    d="M134.8748 481.312682c-14.139777 0-25.584993 13.339412-25.584993 29.73355s11.445216 29.786908 25.584993 29.786908h375.197655c14.126438 0 25.584993-13.339412 25.584993-29.786908s-11.458555-29.73355-25.584993-29.73355H134.8748z"
    fill="#F74B5C"
  ></path>
  <path
    d="M1005.311483 373.103367L887.030913 56.185605c-21.34306-35.18937-58.239875-56.185605-98.711653-56.185605H233.573113c-40.551814 0-77.448629 21.009575-98.77835 56.185605L16.527532 373.090028C8.750655 385.882525 0 405.358067 0 426.887879V569.192731c0 52.330515 20.342604 73.11332 71.579287 73.099981h878.69378c51.223344 0 71.552609-20.796144 71.552609-73.099981V426.914557c0-15.4337-3.281495-31.961232-16.514193-53.81119z m-41.352179 218.126074H57.813014V422.912734h906.199648zM953.38115 727.224751H74.687371c-51.236683 0-71.565948 20.782805-71.565948 73.09998v150.53527c0 52.317176 20.329265 73.126659 71.565948 73.139999h878.693779c51.223344 0 71.565948-20.782805 71.565948-73.11332V800.338071c0-52.330515-20.342604-73.11332-71.565948-73.11332z m13.752935 232.532638H60.934436V791.440683h906.199649z"
    fill="#2194F7"
  ></path>
</svg>
