<svg t="1724824449175" class="icon" viewBox="0 0 1024 1024" version="1.1" xmlns="http://www.w3.org/2000/svg">
  <path
    d="M853.3504 426.6496a341.504 341.504 0 0 1-218.5728 318.6176H389.2224A341.504 341.504 0 0 1 512 85.2992a341.3504 341.3504 0 0 1 341.3504 341.3504z"
    fill="#FFB93E" p-id="5317"></path>
  <path
    d="M512 117.3504A309.3504 309.3504 0 0 0 395.264 713.216h233.3696a309.4528 309.4528 0 0 0-116.736-595.968zM138.6496 426.6496a373.3504 373.3504 0 1 1 507.648 348.4672 32.1024 32.1024 0 0 1-11.52 2.1504H389.2224a32.0512 32.0512 0 0 1-11.52-2.1504 373.4528 373.4528 0 0 1-239.0528-348.4672z"
    fill="#FFB93E" p-id="5318"></path>
  <path
    d="M386.56 713.3696a32 32 0 0 0-29.184 34.56l14.4384 173.824c2.304 27.648 25.4464 48.896 53.1456 48.896h174.08c27.7504 0 50.8416-21.248 53.1456-48.896l14.4896-173.824a32 32 0 1 0-63.7952-5.3248l-13.6704 164.0448H434.7904l-13.6704-164.0448a32 32 0 0 0-34.56-29.2352z"
    fill="#FFB93E" p-id="5319"></path>
  <path
    d="M384 330.6496c17.664 0 32 14.336 32 32v76.2368l81.664-40.8576a32 32 0 0 1 28.672 0l81.664 40.8576V362.6496a32 32 0 1 1 64 0v128a32 32 0 0 1-46.336 28.672L512 462.4384l-113.664 56.832a32 32 0 0 1-46.336-28.672v-128c0-17.664 14.336-32 32-32z"
    fill="#FFFFFF" p-id="5320"></path>
</svg>