<svg viewBox="0 0 1024 1024" xmlns="http://www.w3.org/2000/svg">
  <path
    d="M965.652051 1023.964001H58.347949a25.04312 25.04312 0 0 1-25.04312-25.043119v-248.495264a25.04312 25.04312 0 0 1 25.04312-25.04712h907.304102a25.04312 25.04312 0 0 1 25.04312 25.04712v248.495264a25.04312 25.04312 0 0 1-25.04312 25.043119z"
    fill="#7A8C98"
  ></path>
  <path
    d="M564.782144 918.979692H142.268998c-24.46714 0-44.302442-19.839303-44.302442-44.306442s19.835303-44.306442 44.302442-44.306443h422.513146c24.46714 0 44.306442 19.839303 44.306443 44.306443 0 24.47114-19.839303 44.306442-44.306443 44.306442z"
    fill="#9FACBA"
  ></path>
  <path
    d="M753.763501 949.798609a34.558785 34.558785 0 0 1-34.558786-34.558785v-81.133148a34.558785 34.558785 0 1 1 69.117571 0v81.137147a34.558785 34.558785 0 0 1-34.558785 34.558786z"
    fill="#FFD15B"
  ></path>
  <path
    d="M965.652051 662.688702H58.347949a25.04312 25.04312 0 0 1-25.04312-25.043119V389.150319a25.04312 25.04312 0 0 1 25.04312-25.04312h907.304102a25.04312 25.04312 0 0 1 25.04312 25.04312v248.495264a25.04312 25.04312 0 0 1-25.04312 25.043119z"
    fill="#7A8C98"
  ></path>
  <path
    d="M564.782144 557.704393H142.268998c-24.46714 0-44.302442-19.839303-44.302442-44.306442 0-24.47114 19.835303-44.306442 44.302442-44.306442h422.513146c24.46714 0 44.306442 19.839303 44.306443 44.306442s-19.839303 44.306442-44.306443 44.306442z"
    fill="#9FACBA"
  ></path>
  <path
    d="M753.763501 588.52731a34.558785 34.558785 0 0 1-34.558786-34.558785v-81.137148a34.558785 34.558785 0 1 1 69.117571 0v81.133148a34.558785 34.558785 0 0 1-34.558785 34.558785z"
    fill="#60B7FF"
  ></path>
  <path
    d="M965.652051 298.581503H58.347949a25.04312 25.04312 0 0 1-25.04312-25.04312V25.04312A25.04312 25.04312 0 0 1 58.347949 0h907.304102a25.04312 25.04312 0 0 1 25.04312 25.04312v248.499263a25.04312 25.04312 0 0 1-25.04312 25.03912z"
    fill="#7A8C98"
  ></path>
  <path
    d="M564.782144 193.597194H142.268998c-24.46714 0-44.302442-19.839303-44.302442-44.306443s19.835303-44.306442 44.302442-44.306442h422.513146c24.46714 0 44.306442 19.839303 44.306443 44.306442s-19.839303 44.306442-44.306443 44.306443z"
    fill="#9FACBA"
  ></path>
  <path
    d="M753.763501 224.41611a34.558785 34.558785 0 0 1-34.558786-34.558785V108.728178a34.558785 34.558785 0 1 1 69.117571 0v81.137147a34.558785 34.558785 0 0 1-34.558785 34.558785z"
    fill="#60B7FF"
  ></path>
  <path
    d="M965.652051 725.382498h-79.369209a25.03912 25.03912 0 0 1 25.043119 25.04312v248.495264a25.04312 25.04312 0 0 1-25.03912 25.043119h79.36521a25.03912 25.03912 0 0 0 25.04312-25.039119v-248.499264a25.04312 25.04312 0 0 0-25.04312-25.04312zM965.652051 364.107199h-79.369209a25.03912 25.03912 0 0 1 25.043119 25.04312v248.495264a25.04312 25.04312 0 0 1-25.03912 25.047119h79.36521a25.03912 25.03912 0 0 0 25.04312-25.047119V389.150319a25.04312 25.04312 0 0 0-25.04312-25.04312zM965.652051 0h-79.369209a25.03912 25.03912 0 0 1 25.043119 25.04312v248.499263a25.03912 25.03912 0 0 1-25.03912 25.03912h79.36521a25.03912 25.03912 0 0 0 25.04312-25.03912V25.03912A25.04312 25.04312 0 0 0 965.652051 0z"
    fill="#596C76"
  ></path>
  <path
    d="M891.478659 74.161393c-0.719975 0-1.41995 0.067998-2.123925 0.107996-18.095364 1.103961-32.43886 16.083435-32.43886 34.454789v81.137147c0 18.367354 14.347496 33.346828 32.43886 34.450789 0.703975 0.043998 1.403951 0.107996 2.119925 0.107996a34.558785 34.558785 0 0 0 34.558785-34.558785V108.724178a34.558785 34.558785 0 0 0-34.558785-34.558785z"
    fill="#FFD15B"
  ></path>
  <path
    d="M911.325961 80.461171v137.659161a34.494787 34.494787 0 0 0 14.707483-28.263007V108.724178a34.486788 34.486788 0 0 0-14.707483-28.263007z"
    fill="#FFC344"
  ></path>
  <path
    d="M891.478659 438.272592c-0.719975 0-1.41995 0.063998-2.123925 0.103996-18.095364 1.103961-32.43886 16.087434-32.43886 34.454789v81.133148c0 18.371354 14.347496 33.350828 32.43886 34.454788 0.703975 0.039999 1.403951 0.107996 2.119925 0.107997a34.558785 34.558785 0 0 0 34.558785-34.558785v-81.137148a34.558785 34.558785 0 0 0-34.558785-34.558785z"
    fill="#FE646F"
  ></path>
  <path
    d="M911.325961 444.568371v137.65916a34.494787 34.494787 0 0 0 14.707483-28.263006v-81.137148a34.486788 34.486788 0 0 0-14.707483-28.259006z"
    fill="#FD4755"
  ></path>
  <path
    d="M891.478659 799.543891c-0.719975 0-1.41995 0.067998-2.123925 0.111996-18.095364 1.099961-32.43886 16.079435-32.43886 34.450789v81.137147c0 18.367354 14.347496 33.346828 32.43886 34.450789 0.703975 0.039999 1.403951 0.107996 2.119925 0.107997a34.558785 34.558785 0 0 0 34.558785-34.558786v-81.133147a34.558785 34.558785 0 0 0-34.558785-34.566785z"
    fill="#60B7FF"
  ></path>
  <path
    d="M911.325961 805.84367v137.65916a34.494787 34.494787 0 0 0 14.707483-28.263006v-81.137148a34.486788 34.486788 0 0 0-14.707483-28.259006z"
    fill="#26A6FE"
  ></path>
</svg>
