<svg
  version="1.1"
  xmlns="http://www.w3.org/2000/svg"
  xmlns:xlink="http://www.w3.org/1999/xlink"
  x="0px"
  y="0px"
  viewBox="0 0 800 320"
  style="enable-background: new 0 0 800 320"
  xml:space="preserve"
>
  <style type="text/css">
    .st0 {
      fill-rule: evenodd;
      clip-rule: evenodd;
      fill: #50554a;
    }
    .st1 {
      fill: #e85349;
    }
    .st2 {
      fill: #f3bb4b;
    }
    .st3 {
      fill: #ba4b97;
    }
    .st4 {
      fill: #46b574;
    }
  </style>
  <g transform="translate(75.11500549316406,87.94315719604492)">
    <g transform="matrix(1,0,0,1,0,10.587577819824219)">
      <g>
        <g>
          <path
            class="st0"
            d="M200.2,5.9c0,11.5-3.6,23-12.9,32.3c-11.5,11.5-29.4,15.1-44.5,10L122,69.1l-11.5-10.8l8.6-8.6
					c2.1-2.2-2.1-6.5-4.3-4.3l-8.6,8.6l-0.7-0.7l-7.2,3.6l-8.6-9.3l26.6-25.9c-5-15.1-2.1-33,10-45.2c17.2-16.5,44.5-16.5,61,0
					L157.1-12C151.4-9.1,147.8-2,150,4.5l2.9,5.8c2.1,6.5,9.3,10.1,15.8,7.9l30.9-12.2L200.2,5.9L200.2,5.9z M104,60.5l79.7,77.6
					l-27.3,26.6l-76.8-79l2.9-7.2L38.7,34.7c-3.6,2.9-8.6,2.1-12.9-0.7L21.4,44l0.7,0.7c2.1,2.2,2.1,5.8,0,7.2L9.2,64.8
					c-2.1,2.2-5,2.2-7.2,0l-28-28c-1.4-1.4-1.4-5,0-7.2l12.9-12.2c2.1-2.2,5-2.2,7.2,0h0.7l10-3.6C2,8.8,1.3,3.1,4.9-0.5l12.9-12.2
					c17.2-19.4,46.7-23,81.9-19.4L99-24.9C66.7-17.8,55.9-6.3,52.3,18.9l45.2,45.2L104,60.5z M88.2,103.6L35.8,156
					c-7.9,7.2-20.1,7.2-27.3,0l0,0c-7.2-7.9-7.2-19.4,0-27.3l58.2-57.4l8.6,8.6l-3.6,7.2l0.7,0.7l-34.5,34.5
					c-2.1,2.2,2.1,6.5,4.3,4.3l34.5-34.5L88.2,103.6z M27.9,136.6c2.9,2.1,2.9,6.5,0,9.3c-2.9,2.1-6.5,2.1-9.3,0
					c-2.9-2.9-2.9-7.2,0-9.3C21.4,133.8,25,133.8,27.9,136.6z"
          />
        </g>
      </g>
    </g>
  </g>
  <g transform="translate(107.87850189208984,92.5237045288086)">
    <g>
      <g transform="matrix(1,0,0,1,0,0)">
        <g transform="scale(1)">
          <g transform="translate(0, 0)">
            <g>
              <g>
                <path
                  class="st1"
                  d="M219.4,155.4c8.2,0,14.9-6.6,14.9-14.9v0V9.7c0-8.2-6.7-14.9-14.9-14.9s-14.9,6.6-14.9,14.9v130.9
								C204.5,148.7,211.2,155.4,219.4,155.4z"
                />
                <path
                  class="st2"
                  d="M313.4,151.2c5.9-5.7,6.1-15.1,0.4-21l-51.8-53.7c-1.9-1.9-1.9-5,0-6.9l48-49.7c5.7-5.9,5.5-15.3-0.4-21
								c-5.9-5.7-15.3-5.5-21,0.4l-35.8,37.1c-0.9,0.9-1.4,2.1-1.4,3.4v66.5c0,1.3,0.5,2.5,1.4,3.4l39.7,41.1
								C298.1,156.8,307.5,156.9,313.4,151.2z"
                />
              </g>
            </g>
          </g>
          <g transform="translate(35.305348349803374, 0)">
            <g>
              <g>
                <path
                  class="st3"
                  d="M440.7,100.5l8.3,42.8c1.5,8.1,9.2,13.4,17.3,11.9s13.4-9.2,11.9-17.3c0-0.1,0-0.2-0.1-0.3L461,49.5
								c-0.4-1.9-2.3-3.1-4.2-2.6c-1.1,0.3-2.1,1.1-2.5,2.1L442,83.5C440,89,439.6,94.8,440.7,100.5L440.7,100.5z"
                />
                <path
                  class="st4"
                  d="M449.2,12.3C452.8,2.2,443.1-8,433-4.2c-3.9,1.4-7,4.5-8.6,8.3l-32.1,79.4c-0.6,1.5-2.4,2.2-3.9,1.6
								c-0.7-0.3-1.3-0.9-1.6-1.6C353.2,0.3,354.6,3.6,354,2.7c-1.7-3.3-4.7-5.8-8.2-7C338.1-7,329.6-3,326.9,4.8
								c-0.2,0.7-0.4,1.4-0.6,2.1l-25.4,130.8c-1.6,8,3.7,15.9,11.7,17.4c8,1.6,15.9-3.7,17.4-11.7l0,0L346,61.8
								c31.6,78.2,29.9,74.1,30.5,75.1c3.8,7.3,12.8,10,20.1,6.2c3.1-1.6,5.5-4.3,6.8-7.5l16.8-41.6L449.2,12.3z"
                />
              </g>
            </g>
          </g>
          <g transform="translate(90.646943356475, 0)">
            <g>
              <g>
                <path
                  class="st3"
                  d="M486.5,85.7c6.7,2,13.1,3.5,18.6,5.6c20.3,8.1,15.5,25.4,2.1,32c-1.7,0.8-2.8,2.6-2.8,4.5v21.6
								c0,2.8,2.3,5.1,5.1,5.1c0.5,0,0.9-0.1,1.4-0.2c45.3-12.5,54.4-71.6,5.5-91.1c-7.4-2.9-14.6-4.5-21-6.5
								c-11.7-3.5-18.8-8.9-20-15c-0.9-4.8,1.8-10.3,5-12.8c1.2-0.9,2.5-1.8,3.8-2.5c1.7-0.9,2.8-2.6,2.8-4.5V0.4
								c0-2.8-2.2-5.1-5-5.1c-0.5,0-1,0.1-1.4,0.2c-6.9,1.9-13.3,5.2-19,9.6c-10.4,8.2-19.4,24.5-16,42.3
								C447.5,57.6,455.4,76.3,486.5,85.7z"
                />
                <path
                  class="st1"
                  d="M510.7-5c-2.7-0.7-5.5,1-6.2,3.7c-0.1,0.4-0.1,0.8-0.1,1.2v21.2c0,2,1.2,3.9,3.1,4.7
								c4.2,1.7,7.8,4.7,10,8.6c4,7.4,13.2,10.1,20.6,6.1c7.4-4,10.1-13.2,6.1-20.6l0,0C537.9,8.1,526-1.3,510.7-5z"
                />
                <path
                  class="st2"
                  d="M488.4,150.4v-21c0-2.2-1.4-4.1-3.5-4.8c-5.8-2-10.6-5.8-13.1-10.5c-3.4-7.7-12.3-11.2-20-7.9
								s-11.2,12.3-7.9,20c0.2,0.5,0.4,0.9,0.7,1.3c7.1,14.1,21.2,24.2,37.6,27.7c2.7,0.6,5.5-1.1,6.1-3.9
								C488.4,151.1,488.4,150.7,488.4,150.4z"
                />
              </g>
            </g>
          </g>
        </g>
      </g>
    </g>
  </g>
</svg>
