<svg xmlns="http://www.w3.org/2000/svg" width="14" height="14" viewBox="0 0 1024 1024">
  <path
    d="M156.096 527.36l235.904-241.6a163.072 163.072 0 0 1 233.344 0l2.56 2.656a167.232 167.232 0 0 1 0 233.664l-235.904 241.6a163.072 163.072 0 0 1-233.344 0l-2.56-2.656a167.232 167.232 0 0 1 0-233.664z"
    fill="#12D2AC"
    p-id="2494"
  ></path>
  <path
    d="M625.536 285.76l233.344 238.944a171.008 171.008 0 0 1 0 238.976 163.072 163.072 0 0 1-233.344 0l-233.344-238.976a171.008 171.008 0 0 1 0-238.944 163.072 163.072 0 0 1 233.344 0z"
    fill="#307AF2"
    p-id="2495"
  ></path>
  <path
    d="M628.224 288.704l113.696 116.416-233.344 238.944-233.344-238.944 113.696-116.416a167.232 167.232 0 0 1 239.296 0z"
    fill="#0057FE"
    p-id="2496"
  ></path>
</svg>
