<svg xmlns="http://www.w3.org/2000/svg" width="14" height="14" viewBox="0 0 256 217">
  <defs>
    <radialGradient id="logosDrizzleIcon0" cx="49.99%" cy="50%" r="55.431%" fx="49.99%" fy="50%"
      gradientTransform="matrix(.82793 0 0 1 .086 0)">
      <stop offset="0%" stop-color="#5E464D" />
      <stop offset="100%" stop-color="#5E464D" />
    </radialGradient>
  </defs>
  <path fill="url(#logosDrizzleIcon0)"
    d="M252.198 121.242c0-64.252-60.217-116.658-124.47-116.658C63.476 4.584 3.233 57.158 3.233 121.41c0 .168-3.233 59.118-3.233 59.118c.673 18.986 64.123 36.006 127.961 36.006c64.265 0 128.039-17.02 128.039-36.006c-.052 0-3.802-58.626-3.802-59.286Z" />
  <path fill="#FFF"
    d="M58.678 132.261a143.96 143.96 0 0 0-2.78-21.03a146.947 146.947 0 0 0-5.458-19.606c-1.164-3.13-2.328-6.208-3.674-9.17c-1.345-2.961-4.785-11.782-5.302-13.256c-.517-1.475-1.177-2.91-1.85-4.32a91.05 91.05 0 0 0-4.32-8.264l-.22-.375a11.304 11.304 0 0 1 13.193-16.387l1.293.414l1.151.388l2.315.737c1.462.543 2.897 1.087 4.32 1.656a181.219 181.219 0 0 1 8.355 3.66a172.6 172.6 0 0 1 15.998 8.587a159.079 159.079 0 0 1 28.854 22.31a136.549 136.549 0 0 1 21.28 26.791c.468.77-.599 1.67-.556.535a127.315 127.315 0 0 0-2.23-28.93A114.485 114.485 0 0 0 118.52 45.61a121.572 121.572 0 0 0-18.533-26.49l-.156-.155a11.33 11.33 0 0 1 9.843-18.87l.97.13l.789.116l1.513.259c.983.168 1.953.35 2.91.556c1.9.388 3.776.828 5.626 1.293c3.711.945 7.346 2.03 10.928 3.247a162.622 162.622 0 0 1 57.902 34.402a165.248 165.248 0 0 1 28.557 34.803a191.412 191.412 0 0 1 3.065 5.192c.035.061-.003.218-.012.019a57.759 57.759 0 0 0-1.54-10.81a61.484 61.484 0 0 0-4.126-11.46a71.197 71.197 0 0 0-6.466-10.864a91.994 91.994 0 0 0-8.51-10.01a124.159 124.159 0 0 0-10.01-9.053a97.866 97.866 0 0 1 12.493 5.716a84.415 84.415 0 0 1 11.82 7.644a73.008 73.008 0 0 1 10.567 9.958a68.287 68.287 0 0 1 8.575 12.274a73.72 73.72 0 0 1 8.613 29.527a39.42 39.42 0 0 1 0 7.76a62.842 62.842 0 0 1-1.487 7.643c-.582 2.587-1.19 5.031-1.953 7.527a38.914 38.914 0 0 1-1.293 3.75l-.634 1.863l-.414.996l-.53 1.203a11.278 11.278 0 0 1-21.042-.905l-.104-.337a169.076 169.076 0 0 0-16.464-35.682a141.98 141.98 0 0 0-24.56-29.94a139.51 139.51 0 0 0-37.824-24.949c-.192-.085 1.14 2.07 1.727 3.207a137.545 137.545 0 0 1 12.61 36.407a149.948 149.948 0 0 1 2.535 38.205a158.445 158.445 0 0 1-2.328 18.96a171.604 171.604 0 0 1-2.07 9.39a94.741 94.741 0 0 1-1.292 4.707l-.75 2.38l-.401 1.293l-.505 1.423a11.317 11.317 0 0 1-21.65-1.06l-.078-.324a106.608 106.608 0 0 0-11.303-28.375a113.23 113.23 0 0 0-18.934-24.289a136.782 136.782 0 0 0-24.755-19.076c-1.29-.785-2.592-1.55-3.906-2.295c.152.004.438-.325.473-.05c.21 1.658.357 3.328.523 4.97c.31 3.88.479 7.682.427 11.485a124.767 124.767 0 0 1-2.328 22.31c-.724 3.62-1.59 7.19-2.664 10.695a80.626 80.626 0 0 1-3.686 10.334Z" />
  <path fill="#E911BD"
    d="M58.678 132.261c.556-6.977.556-13.988 0-20.965a143.636 143.636 0 0 0-3.065-20.473a128.46 128.46 0 0 0-2.69-9.88c-1.035-3.234-2.29-6.377-3.35-9.572a122.265 122.265 0 0 0-1.655-4.772c-.582-1.578-1.294-3.117-1.992-4.63c-1.371-3.065-3-6.001-4.656-8.911l-.078-.13a4.398 4.398 0 0 1 1.643-6a4.346 4.346 0 0 1 3.479-.388c3.013.918 5.639 1.914 8.393 3.013c2.755 1.1 5.368 2.263 7.993 3.492a166.463 166.463 0 0 1 15.339 8.252a151.577 151.577 0 0 1 27.638 21.3a128.724 128.724 0 0 1 21.521 27.613a122.309 122.309 0 0 1 8.564 18.22c.021-.036-.276-.342-.26-.284c.155-.758.305-1.516.452-2.274c1.04-5.64 1.74-11.336 2.095-17.059c.742-11.436.012-22.92-2.173-34.17a121.572 121.572 0 0 0-11.161-32.229a128.453 128.453 0 0 0-19.607-28a4.41 4.41 0 0 1 3.88-7.346c2.044.258 3.738.582 5.561.957c1.824.375 3.57.776 5.329 1.293c3.518.862 6.967 1.892 10.347 3.091a155.302 155.302 0 0 1 55.367 32.863a158.173 158.173 0 0 1 27.34 33.342a184.053 184.053 0 0 1 13.569 26.87c1.623 3.997-.567 1.828-.17-.266c.763-4.165 1.203-8.355 1.591-12.571a61.834 61.834 0 0 0-3.182-25.117a67.253 67.253 0 0 0-13.204-22.258a99.78 99.78 0 0 0-20.306-17.304a97.452 97.452 0 0 1 22.569 15.08a70.072 70.072 0 0 1 16.529 22.258a69.36 69.36 0 0 1 6.233 27.586a52.638 52.638 0 0 1-.271 7.14c-.272 2.366-.724 4.707-1.216 7.035a81.065 81.065 0 0 1-2.91 10.334c-.427 1.164-.815 2.198-1.41 3.505a4.41 4.41 0 0 1-8.186-.401v-.09a175.18 175.18 0 0 0-17.15-37.158a149.314 149.314 0 0 0-25.866-31.492a146.404 146.404 0 0 0-52.25-31.04a133.923 133.923 0 0 0-7.46-2.295c-.758-.209-2.464-3.403.174.07a137.532 137.532 0 0 1 12.575 19.892a130.625 130.625 0 0 1 11.976 34.57a143.559 143.559 0 0 1 2.315 36.433a150.025 150.025 0 0 1-2.237 18.107a143.046 143.046 0 0 1-1.953 8.936a142.411 142.411 0 0 1-1.229 4.45a72.945 72.945 0 0 1-1.474 4.526a4.423 4.423 0 0 1-8.432-.453v-.103a113.98 113.98 0 0 0-12.054-30.212a119.684 119.684 0 0 0-20.047-25.711a143.559 143.559 0 0 0-25.97-20.073a156.57 156.57 0 0 0-19.21-9.86c-.006.015.012-.069.006-.053a122.865 122.865 0 0 1 3.917 9.46a64.032 64.032 0 0 1 2.587 10.632a127.221 127.221 0 0 1 1.41 10.773c.601 7.153.601 14.343 0 21.495a120.2 120.2 0 0 1-1.294 10.593a90.7 90.7 0 0 1-2.224 10.359Z" />
</svg>