<svg xmlns="http://www.w3.org/2000/svg" width="14" height="14" viewBox="0 0 256 256">
  <g fill="none">
    <g clip-path="url(#skillIconsElysiaLight2)">
      <path fill="#F4F2ED"
        d="M196 0H60C26.863 0 0 26.863 0 60v136c0 33.137 26.863 60 60 60h136c33.137 0 60-26.863 60-60V60c0-33.137-26.863-60-60-60" />
      <path fill="#333"
        d="M186.844 175.062c.043-1.04.217-3.812.433-6.194c1.04-11.436-1.906-23.132-8.143-32.358c-2.123-3.162-2.123-3.162-9.313-5.545s-7.191-2.382-7.234-3.985c0-1.559-.044-1.602-2.253-2.079c-6.714-1.473-13.255-.823-21.615 2.166c-2.685.953-5.501 1.733-6.237 1.733c-1.387 0-1.387 0-1.69-4.722c-.13-2.599-.65-6.238-1.126-8.057c-1.559-6.064-1.906-5.718 5.761-5.978c7.234-.216 10.526-.953 16.201-3.552c3.725-1.732 7.277-4.071 6.757-4.505c-.173-.173-1.429-.779-2.729-1.299c-4.158-1.646-9.01-4.808-11.262-7.234c-1.82-1.993-2.339-3.032-3.292-6.151c-3.163-10.526-7.711-15.507-17.284-18.93c-1.169-.433-2.902-1.472-3.812-2.338c-2.469-2.296-5.068-5.848-5.068-6.845c0-.823.347-.91 4.029-1.17c13.818-.952 21.918-.26 31.578 2.73c20.748 6.497 36.516 20.185 45.612 39.635c6.368 13.601 8.274 30.971 5.155 46.609c-.996 5.111-3.509 12.345-5.934 17.326c-2.643 5.372-7.234 12.562-7.971 12.562c-.39 0-.563-.65-.563-1.819M53.905 149.938c-1.213-6.324-1.516-9.919-1.516-18.756c-.044-8.144.13-10.223.91-14.295c2.902-14.208 9.616-26.943 19.579-36.992c4.764-4.852 8.013-7.84 8.446-7.84c.087 0 .52 1.039.953 2.295c.953 2.99 2.773 6.498 4.679 9.183c1.04 1.43 1.559 2.643 1.559 3.552c0 1.3-.217 1.517-2.512 2.686c-5.112 2.599-9.227 6.238-13.039 11.652c-2.209 3.119-2.209 3.119.823 3.119s3.032 0 3.032 1.473c0 1.299-.26 1.603-1.949 2.599c-1.083.65-3.119 2.166-4.591 3.335c-8.49 7.104-14.641 22.828-14.685 37.556c0 2.036-.13 2.686-.606 2.686c-.433 0-.78-.78-1.083-2.253" />
      <path fill="#333"
        d="M134.431 90.897c0-1.429.087-1.516 1.516-1.516s1.516.087 1.516 1.516s-.087 1.516-1.516 1.516s-1.516-.086-1.516-1.516M122.302 83.1c0-1.43.087-1.516 1.516-1.516s1.516.087 1.516 1.516s-.086 1.516-1.516 1.516s-1.516-.086-1.516-1.516" />
      <path fill="url(#skillIconsElysiaLight0)"
        d="M166.095 201.572c3.682-5.415 5.805-12.649 4.765-16.374c-.693-2.556-2.902-4.635-5.631-5.285c-4.375-1.039-9.357.52-25.167 7.971c-8.967 4.245-16.114 6.8-21.875 7.883c-4.462.823-15.941.693-20.142-.26c-10.05-2.209-19.796-6.497-23.608-10.396c-2.166-2.209-2.166-2.209-2.166-10.742c0-6.714.173-9.227.78-11.869c.78-3.379.78-3.379 2.296-3.379c1.126 0 1.472.174 1.472.78c.044.606.217.52.997-.39c6.15-7.32 7.883-9.313 8.1-9.486c.13-.13 1.82-2.079 3.682-4.332c3.335-4.028 3.378-4.115 2.252-4.245c-.996-.13-1.17-.346-1.17-1.646c0-1.04.217-1.473.65-1.473c.347 0 .65-.173.65-.39c0-.476 4.245-2.339 7.84-3.422c3.552-1.083 10.786-1.949 13.255-1.559c1.733.26 1.863.347 1.82 1.646c0 1.126-.347 1.559-1.993 2.642c-1.126.737-2.512 1.993-3.119 2.816c-1.256 1.689-.996 1.559 2.599-1.386c3.163-2.556 11.133-7.754 14.858-9.66c3.379-1.733 3.379-1.733 3.162-6.281c-.13-2.512-.563-5.631-.953-6.93c-.39-1.3-.823-3.119-.953-3.986c-.216-1.646-.216-1.646 1.3-1.646c.953 0 1.602.26 1.776.65q.26.65-.65.65c-.693 0-.823.173-.606.78c.779 2.079 1.516 6.41 1.776 10.612c.173 2.556.346 4.635.389 4.635s2.253-.78 4.939-1.733c7.883-2.815 15.55-3.725 21.961-2.555c3.379.606 11.003 3.075 11.003 3.552c0 .26-1.083.303-2.513.13c-5.025-.563-4.072.216 3.249 2.685c7.191 2.469 7.191 2.469 9.313 5.631c6.498 9.617 9.313 21.529 8.187 34.654c-.26 2.945-.39 5.501-.26 5.718c.13.173-.13.779-.563 1.343c-.433.563-1.343 2.425-1.993 4.071c-2.945 7.451-8.62 15.075-14.554 19.493c-1.43 1.083-6.194 3.682-6.714 3.682c-.13 0 .563-1.17 1.559-2.599m18.8-52.457c-.91-3.552-5.415-12.865-6.368-13.298c-.216-.087-.346-.39-.346-.65c0-.303-.434-.78-.953-1.126c-1.56-.996-12.909-4.808-15.248-5.155c-2.209-.303-2.209-.303-2.209-2.122c0-1.82 0-1.82-2.772-2.123c-3.942-.433-9.66.043-13.472 1.126c-4.028 1.127-10.006 3.466-9.789 3.856c.346.519 9.009 4.548 11.912 5.544c1.083.347 4.158 1.603 6.757 2.816c6.108 2.729 6.194 2.772 13.862 5.977c3.595 1.473 7.277 3.033 8.23 3.466s3.292 1.386 5.198 2.166c1.906.736 3.942 1.602 4.548 1.906s1.126.519 1.213.433c.087-.044-.173-1.3-.563-2.816" />
      <path fill="#666"
        d="M54.728 153.1c-.477-.909-.607-7.84-.174-9.443c.174-.563.563-.996.867-.996c.476 0 .606 1.126.606 5.631c0 5.501-.303 6.628-1.3 4.808m.217-13.298c.693-5.761 4.029-16.114 5.328-16.547c.91-.303.607 2.123-.78 5.588c-1.299 3.379-3.032 10.353-3.032 12.302c0 .823-.216 1.083-.91 1.083c-.866 0-.909-.13-.606-2.426m6.281-19.189c0-.217.996-1.863 2.166-3.682c2.469-3.639 5.848-6.888 9.703-9.27c2.599-1.603 2.599-1.603 1.083-1.863c-.823-.173-1.126-.303-.693-.346c.39 0 .736-.347.736-.693c0-.477.477-.65 1.733-.65c1.69 0 1.733.043 1.733 1.516c0 1.083-.217 1.646-.737 1.819c-.433.174-1.04.563-1.343.867c-.303.303-.866.563-1.213.563c-.346 0-.606.216-.606.433c0 .26-.26.433-.607.433c-.346 0-.693.303-.866.65c-.13.346-.65.65-1.126.65c-.477 0-.866.259-.866.563c0 .693-3.552 4.201-4.245 4.201c-.304 0-.52.39-.52.867c0 .476-.174.866-.433.866c-.217 0-.434.303-.434.65c0 .346-.173.65-.39.65c-.216 0-.52.476-.65 1.083c-.216.779-.562 1.082-1.342 1.082c-.606 0-1.083-.173-1.083-.389m77.537-9.833c0-.693.52-.953 2.946-1.343c3.725-.65 8.403-1.949 9.01-2.512c.26-.217 1.516-.91 2.815-1.517c1.3-.606 2.426-1.212 2.469-1.386c.087-.216.347-.346.564-.346s.736-.347 1.169-.78c.65-.65.693-.91.26-1.299c-.303-.304-.953-.52-1.473-.52c-.476 0-.866-.174-.866-.433c0-.217-.39-.434-.823-.434c-1.3 0-2.209-.476-2.209-1.126c0-.346-.433-.606-1.04-.606c-.606 0-1.343-.26-1.646-.607c-.346-.303-1.04-.736-1.559-.866c-.52-.173-.953-.606-.953-.953s-.347-.606-.78-.606c-.866 0-3.119-2.123-3.119-2.946c0-.303-.173-.52-.433-.52c-.217 0-.433-.563-.433-1.3c0-.779-.217-1.299-.563-1.299c-.52 0-2.469-5.631-2.469-7.147c0-.347-.174-.65-.39-.65s-.737-.866-1.213-1.95c-.433-1.082-.91-1.948-1.083-1.948c-.217 0-.347-.39-.347-.867c0-.476-.259-.866-.563-.866c-.693 0-2.902-2.252-2.902-2.946c0-.303-.39-.52-.866-.52c-.477 0-.867-.173-.867-.346s-.693-.606-1.516-.91c-.823-.303-1.516-.823-1.516-1.17c0-.389-.476-.606-1.299-.606c-.693 0-1.3-.13-1.3-.346c0-.173-.996-.563-2.252-.866c-2.556-.607-4.678-2.34-4.678-3.812c0-.693-.304-1.04-.953-1.126c-.65-.087-1.04-.477-1.127-1.083c-.086-.564-.433-.997-.779-.997s-.607-.303-.607-.65c0-.346-.173-.65-.433-.65c-.217 0-.433-.39-.433-.866c0-1.3 1.429-1.082 2.252.347c1.343 2.296 5.935 6.93 7.148 7.19c.693.174 3.032 1.17 5.241 2.253c7.061 3.422 10.439 7.797 13.255 17.153c.953 3.12 1.473 4.159 3.292 6.151c2.426 2.643 7.191 5.588 12.302 7.668c1.819.736 3.292 1.559 3.292 1.819c0 1.039-3.769 3.898-7.494 5.674c-4.158 1.993-8.88 3.466-12.735 3.986c-2.079.259-2.296.216-2.296-.52m-71.039-5.285c0-.217.65-1.126 1.43-2.079c.779-.91 2.338-2.946 3.421-4.548c1.083-1.56 2.296-3.076 2.686-3.38c.606-.519.693-.389.693 1.04c0 1.213-.217 1.646-.867 1.82c-.476.13-.866.606-.866 1.04c0 .476-.173.822-.433.822c-.217 0-.433.304-.433.65s-.173.65-.433.65c-.217 0-.434.303-.434.65c0 .346-.39.649-.866.649c-.65 0-.866.304-.866 1.083c0 .607-.347 1.256-.823 1.516c-1.04.52-2.21.563-2.21.087m9.964-12.259c1.819-1.602 5.717-4.288 6.15-4.288c.217 0 .347.477.347 1.083c0 .693-.26 1.083-.65 1.083c-.346 0-.65.216-.65.433c0 .26-.303.433-.65.433c-.346 0-.649.217-.649.433c0 .26-.476.434-1.083.434c-.78 0-1.083.216-1.083.866c0 .736-.303.866-1.603.866c-1.646-.043-1.646-.043-.13-1.343" />
      <path fill="#666"
        d="M128.106 91.764c-4.721-2.383-7.277-6.585-5.977-9.92c.433-1.17 2.945-.91 3.638.347c.737 1.386 3.336 3.205 7.711 5.414c3.552 1.776 3.552 1.776 3.552 3.509s0 1.733-3.379 1.733c-2.729 0-3.769-.217-5.545-1.083m-43.49-2.816c0-.217.607-.736 1.3-1.083c1.43-.736 1.472-.65-.693-3.682a33 33 0 0 1-4.115-8.1c-.78-2.296-.78-2.296.26-2.296c.823 0 1.082.347 1.559 2.166c.303 1.213.693 2.166.866 2.166s.65.866 1.126 1.949c.434 1.083.91 1.95 1.127 1.95c.173 0 .303.302.303.65c0 .346.216.649.433.649c.26 0 .433.39.433.866c0 .477.303.866.65.866c.433 0 .65.477.65 1.517c0 .823-.174 1.516-.433 1.516c-.217 0-.434.303-.434.65c0 .433-.476.65-1.516.65c-.823 0-1.516-.174-1.516-.434m97.247-9.183c-2.166-2.296-2.166-2.296.13-.13c1.212 1.17 2.252 2.209 2.252 2.252c0 .347-.39-.043-2.382-2.122" />
      <path fill="url(#skillIconsElysiaLight1)"
        d="M73.18 183.855c-1.602-1.776-2.079-11.782-.909-19.016c2.989-18.453 19.406-32.141 38.595-32.141c4.072 0 4.072 0 4.072 1.516c0 1.04-.303 1.776-.953 2.296c-2.555 2.079-4.245 3.682-4.245 4.115c0 .26.303.043.693-.476c.347-.52.91-.953 1.17-.953c.303 0 .779-.39 1.083-.867c.303-.476.693-.866.953-.866c.216 0 .909-.477 1.559-1.083s1.43-1.083 1.733-1.083c.346 0 .606-.173.606-.39c0-.693 12.779-8.273 13.948-8.273c.173 0 .347.303.347.65c0 .866.303.823 3.725-.564c6.757-2.772 9.703-3.335 17.717-3.335c7.32.043 7.407.043 11.912 1.603c4.548 1.559 4.548 1.559.086 1.602c-4.591.044-5.631.607-1.949 1.04c1.17.13 5.025 1.256 8.577 2.556c6.497 2.296 6.497 2.296 8.143 4.678c2.729 3.985 5.415 9.92 6.585 14.684c.606 2.469 1.039 4.809.952 5.198c-.173.564-.216.564-.259-.086c0-.433-.26-.65-.52-.52c-.217.173-1.43-.173-2.686-.78a94 94 0 0 0-5.718-2.469a118 118 0 0 1-5.198-2.166c-.953-.433-4.635-1.992-8.23-3.465c-7.667-3.205-7.754-3.249-13.861-5.978c-2.599-1.213-5.675-2.469-6.758-2.815c-1.906-.65-4.981-2.036-10.526-4.722c-1.386-.65-2.815-1.213-3.162-1.213c-.39 0-.563-.26-.433-.606c.173-.433.043-.563-.347-.39c-.346.13-.519.433-.346.693q.195.39-.26.13c-1.04-.65-11.739 6.368-19.493 12.865c-1.949 1.603-3.595 2.902-3.725 2.902c-.26 0 .173-2.339.693-4.201c.65-2.123 2.816-4.809 4.982-6.151c1.906-1.257 1.906-1.257.649-1.43c-3.638-.52-14.597 1.776-14.164 2.989c.13.303.087.563-.13.563c-.173 0-1.213 1.213-2.253 2.686c-1.689 2.426-7.926 10.179-8.62 10.742c-.13.13-1.386 1.603-2.815 3.249c-8.187 9.79-9.66 11.219-9.79 9.443c-.043-.433-.303.477-.65 2.036c-.736 3.552-.736 11.392 0 15.508c.304 1.689.39 3.118.26 3.118c-.173 0-.606-.346-1.04-.823" />
      <path fill="#999"
        d="M54.944 140.842c.607-4.549 2.036-10.136 3.682-14.425c1.776-4.505 5.285-10.612 6.93-12.128c.91-.823.91-.823.78.866c-.086 1.429-.303 1.776-1.082 1.862c-.78.13-.997.434-.997 1.43c0 .823-.216 1.256-.65 1.256c-.346 0-.65.39-.65.866c0 1.04-1.775 4.765-2.252 4.765c-.173 0-.346.477-.346 1.083c0 .607-.173 1.083-.433 1.083c-.217 0-.433.303-.433.65c0 .346-.52 2.339-1.127 4.418c-.606 2.123-1.3 5.328-1.602 7.191c-.39 2.815-.607 3.335-1.3 3.335c-.736 0-.78-.216-.52-2.252m75.155-20.836c0-.779-.39-2.902-.866-4.678c-.477-1.776-.867-3.725-.867-4.375c0-1.213 0-1.213 3.249-1.213c2.946 0 3.249.087 3.249.867c0 .779-.303.866-2.599.866c-2.512 0-2.599.043-2.166.866c.52.953 1.733 6.844 1.733 8.274c0 .52-.303.823-.867.823c-.693 0-.866-.303-.866-1.43m-61.077-9.183c.303-.347 1.95-1.559 3.639-2.686a102 102 0 0 0 3.379-2.252c.173-.173-.997-.217-2.643-.13c-2.642.173-3.032.087-3.205-.606c-.173-.737-.217-.737-.26-.044c-.044.477-.39.737-1.126.737c-1.3 0-1.257-.13 1.082-3.163c.824-1.126 1.69-2.035 1.906-2.035c.174 0 .26.779.174 1.732c-.174 1.733-.174 1.733 2.989 1.733s3.162 0 3.162 1.516c0 1.04-.217 1.516-.65 1.516c-.346 0-.65.217-.65.433c0 .26-.476.433-1.083.433c-.693 0-1.083.26-1.083.65c0 .347-.303.65-.65.65c-.346 0-.65.217-.65.433c0 .26-.389.433-.865.433c-.477 0-.867.303-.867.65c0 .476-.476.65-1.56.65c-1.342 0-1.515-.087-1.039-.65m68.008-.087c0-.779.39-.909 2.989-1.169c3.162-.26 11.132-2.642 12.085-3.595c.303-.304 1.17-.564 1.863-.564c.823 0 1.256-.216 1.256-.649c0-.347.303-.65.65-.65c.346 0 .649-.173.649-.433c0-.217.39-.433.867-.433c.476 0 .866-.26.866-.607c0-.346-.39-.779-.866-.909c-.477-.13-.867-.477-.867-.694s-.476-.389-1.083-.389c-.693 0-1.082-.26-1.082-.65s-.39-.65-1.04-.65c-1.516 0-2.426-.433-2.426-1.126c0-.347-.433-.606-1.083-.606s-1.083-.26-1.083-.607c0-.39-.519-.693-1.169-.78c-1.04-.13-1.256-.346-1.343-1.602c-.173-1.517-.173-1.517 1.299-.39c2.34 1.776 6.628 4.115 10.093 5.588c1.776.736 3.336 1.472 3.466 1.689c.476.736-3.336 3.682-7.364 5.674c-4.635 2.253-9.097 3.596-13.775 4.072c-2.686.303-2.902.26-2.902-.52M73.008 98.391c1.776-2.599 5.37-5.89 8.793-8.1c1.862-1.213 3.595-2.21 3.898-2.21c.304 0 .78-.302 1.083-.649c.39-.476.303-.91-.563-2.036c-2.685-3.508-6.324-11.479-5.718-12.475c.13-.26.52-.433.867-.433c.65 0 2.382 4.721 2.382 6.584c0 .91.217 1.213.866 1.213c.564 0 .953.39 1.127 1.083c.13.606.433 1.083.65 1.083c.216 0 .39.303.39.65c0 .346.216.65.432.65c.26 0 .434.389.434.865c0 .477.26.867.606.867c.736 0 1.126.953 1.126 2.642c0 1.04-.173 1.256-1.083 1.256c-1.083 0-4.245 1.3-4.461 1.863c-.087.173-.433.303-.78.303s-.606.217-.606.433c0 .26-.26.433-.607.433c-.346 0-.693.304-.866.65c-.13.347-.65.65-1.126.65c-.477 0-.867.26-.867.563c0 .823-2.729 3.336-3.595 3.336c-.477 0-.736.346-.736 1.083c0 .91-.217 1.082-1.343 1.082c-1.3 0-1.3 0-.304-1.386m57.872-5.414c-.693-.087-1.213-.39-1.213-.607s-.477-.39-1.083-.39c-.607 0-1.083-.173-1.083-.433c0-.216-.303-.433-.65-.433c-.346 0-.65-.173-.65-.433c0-.217-.259-.433-.563-.433c-.606 0-2.469-1.906-2.469-2.556c0-.217-.216-.477-.52-.563c-.259-.087-.563-1.343-.693-2.86c-.173-2.685-.173-2.685 1.82-2.685c1.429 0 1.992.173 1.992.607c0 .346.304.693.65.866c.347.13.65.52.65.91c0 .346.39.65.866.65c.477 0 .866.173.866.39c0 .216.477.52 1.083.649c.78.217 1.083.563 1.083 1.343c0 .606-.173 1.083-.39 1.083c-.823 0-5.544-3.509-6.107-4.548c-.91-1.69-1.516-.26-.693 1.645c1.299 3.206 6.237 6.368 9.833 6.368c2.599 0 2.945-.52 1.039-1.43c-1.862-.866-1.949-1.602-.216-1.602c2.295 0 3.465.823 3.465 2.469c0 1.3-.13 1.43-1.299 1.43c-.694 0-1.3.216-1.3.433c0 .433-2.079.476-4.418.13m12.215-.607c0-.26-.303-.736-.65-1.083c-.346-.39-.649-1.126-.649-1.69c0-.562-.13-1.082-.347-1.169c-.476-.216-2.252-6.064-2.252-7.45c0-2.383 1.082-.823 2.642 3.725c.823 2.556 2.036 5.415 2.686 6.367c1.169 1.777 1.169 1.777-.13 1.777c-.693 0-1.3-.217-1.3-.477m-6.064-14.424c0-.347-.217-.694-.477-.78s-.39-.823-.303-1.646c.13-1.516.13-1.516 1.56.39c1.689 2.295 1.732 2.642.303 2.642c-.65 0-1.083-.26-1.083-.607m-5.198-5.457c0-.217-.303-.434-.65-.434s-.65-.39-.65-.866c0-.65-.303-.866-1.169-.866c-.607 0-2.556-.52-4.289-1.17c-2.642-.996-3.205-1.386-3.205-2.166c0-.996 0-.996 3.162.13c3.292 1.213 8.447 4.029 9.4 5.112c.476.606.346.693-1.04.693c-.866 0-1.559-.174-1.559-.433m-33.701-7.191c-1.083-.736-1.3-1.906-.346-1.906c.346 0 .693-.303.866-.65c.13-.346.476-.65.78-.65c.303 0 1.083-.303 1.776-.606c.649-.346 1.169-.476 1.169-.303c0 .216 1.126.52 2.513.65c1.342.13 3.985.52 5.847.78c3.336.52 3.336.52 3.336 1.949s0 1.429-7.494 1.429c-6.064 0-7.667-.13-8.447-.693m20.143-.477c-.174-.13-.304-.736-.304-1.299c0-.736-.259-.996-.909-.996c-.52 0-.997-.347-1.126-.867c-.13-.476-.39-.866-.607-.866s-.39-.563-.39-1.3c0-.692.173-1.299.347-1.299c.216 0 1.343 1.213 2.512 2.686c3.595 4.591 3.422 4.245 1.993 4.245c-.693 0-1.386-.13-1.516-.303" />
      <path fill="#CCC"
        d="M73.224 183.812c-.606-.693-1.3-1.299-1.473-1.299c-.78 0-3.032-2.903-3.725-4.765c-1.56-4.332-2.036-7.537-2.036-14.295c0-10.136 1.82-17.283 6.671-26.163c4.375-8.057 12.475-17.154 19.146-21.572c4.678-3.119 11.566-6.281 16.417-7.58c3.812-.997 5.198-1.127 11.479-1.17c5.761 0 7.407.13 8.447.693c1.992 1.04 6.497 2.079 9.14 2.079c1.732 0 2.339.174 2.339.607c0 .953-2.209 1.256-6.368.909c-3.552-.303-3.725-.303-3.422.477c1.04 2.642 1.646 6.237 1.863 11.046c.26 5.458.26 5.458-3.595 7.493c-5.112 2.729-10.223 6.151-15.465 10.397c-6.627 5.371-6.367 5.198-6.367 4.504c0-3.032 2.815-7.58 5.848-9.443c.823-.519 1.516-1.126 1.516-1.342c0-.607-5.155-.477-9.01.259c-15.854 3.033-28.503 15.854-31.058 31.492c-.997 6.151-.693 14.381.693 17.63c.65 1.516.216 1.559-1.04.043m-18.063-29.845c-.693-1.343-.52-2.209.433-2.209c.693 0 .867.303.867 1.516c0 1.689-.607 1.992-1.3.693m-.433-9.877c0-2.209 1.256-9.009 2.382-12.821c1.3-4.462 3.422-9.4 4.072-9.4c.866 0 .476 2.252-1.04 6.021c-1.819 4.548-3.162 10.006-3.552 14.251c-.216 2.643-.39 3.119-1.04 3.119c-.606 0-.822-.303-.822-1.17m6.497-22.914c0-.607 2.686-4.852 4.072-6.454c1.516-1.733 1.516-1.733 1.56-.087c0 1.3-.13 1.603-.867 1.603c-.65 0-.866.303-.866 1.083c0 .693-.26 1.083-.65 1.083c-.346 0-.65.389-.65.823c0 1.516-.52 2.209-1.56 2.209c-.562 0-1.039-.13-1.039-.26m7.191-9.747c.433-.519 2.556-2.079 4.678-3.465c3.162-2.079 3.682-2.556 2.729-2.556c-.65 0-1.17-.173-1.17-.389c0-.52 1.127-.91 2.643-.91c1.126 0 1.256.13 1.256 1.473c0 1.516-.563 1.992-2.21 1.992c-.432 0-.822.303-.822.65s-.303.65-.65.65s-.65.216-.65.433c0 .26-.303.433-.65.433c-.346 0-.65.217-.65.433c0 .26-.346.433-.822.433c-.433 0-.91.39-1.04.867c-.173.693-.606.866-1.863.866c-1.602 0-1.602 0-.78-.91m72.08-1.169c0-.866 1.646-1.386 4.462-1.386c.65 0 1.169-.173 1.169-.433c0-.217.607-.433 1.3-.433c.736 0 1.299-.174 1.299-.434c0-.216.477-.433 1.083-.433c.607 0 1.083-.173 1.083-.433c0-.217.607-.433 1.3-.433c.823 0 1.299-.217 1.299-.607c0-.693.91-1.126 2.426-1.126c.736 0 1.04-.26 1.04-.866c0-.65.303-.867 1.126-.867c.996 0 1.039-.086.433-.649c-.347-.347-.866-.65-1.17-.65c-.346 0-1.429-.303-2.425-.693c-1.257-.52-1.863-.996-1.863-1.516c0-.65-.347-.823-1.516-.823c-1.04 0-1.516-.217-1.516-.65c0-.39-.39-.65-1.083-.65c-.866 0-1.083-.216-1.083-1.083c0-.606.087-1.082.217-1.082s1.732.866 3.595 1.905c1.819 1.083 4.635 2.47 6.281 3.119c1.603.65 2.902 1.43 2.902 1.733c0 .953-3.509 3.595-7.104 5.328s-8.143 3.205-11.392 3.725c-1.646.26-1.863.217-1.863-.563m-72.339-4.852c0-.216.52-1.039 1.213-1.819c.65-.78 1.906-2.512 2.816-3.855s2.035-2.816 2.468-3.206c.867-.78.867-.736.867.824c0 1.256-.173 1.689-.867 1.862c-.476.13-.866.607-.866 1.04c0 .476-.173.823-.39.823c-.216 0-.52.476-.65 1.083c-.216.779-.562 1.083-1.342 1.083c-.607 0-1.083.216-1.083.433c0 .26.606.433 1.3.433c1.559 0 1.775 1.083.346 1.473c-1.516.39-3.812.303-3.812-.174m9.096-11.478c0-.39 5.415-4.202 7.45-5.242c1.257-.606 2.34-.91 2.817-.736c.736.303.736.26.043-.737c-4.159-5.89-6.758-11.349-7.147-14.944c-.087-.953-.26-4.375-.39-7.624c-.217-5.934-.217-5.934 4.028-5.111c4.332.78 9.963 2.382 10.743 2.989c.26.216 1.213.476 2.166.65c.953.173 1.992.52 2.295.78c.304.216.953.476 1.516.52c.52.042 1.213.129 1.517.172c.996.087.519 1.17-.867 1.993c-.953.563-2.512.866-4.895.996c-3.032.174-3.898.044-6.28-.91c-1.517-.65-2.816-1.082-2.903-.996c-.216.217 3.899 6.151 6.584 9.573c1.776 2.253 2.383 3.379 2.383 4.419c0 1.342-.087 1.43-1.56 1.43c-1.819 0-2.945.519-4.808 2.295c-1.386 1.3-1.862 2.469-.996 2.469c.26 0 .433.65.433 1.473c0 1.256-.173 1.56-1.343 1.949c-.78.26-1.862.476-2.382.476c-.65 0-1.04.26-1.04.65c0 .347-.303.65-.65.65c-.346 0-.65.216-.65.433c0 .26-.302.433-.649.433s-.65.217-.65.433c0 .26-.39.434-.866.434c-.477 0-.866.303-.866.65c0 .433-.477.65-1.516.65c-.824 0-1.517-.088-1.517-.218m52.544-1.126c-.78-.216-1.43-.606-1.43-.823c0-.26-.389-.433-.866-.433c-.476 0-.866-.173-.866-.433c0-.217-.303-.433-.65-.433q-.65 0-.65-1.3c0-1.17-.13-1.3-1.299-1.3c-.997 0-1.3-.172-1.3-.865c0-.477-.173-.867-.433-.867c-.217 0-.433-.693-.433-1.516s.216-1.516.433-1.516c.26 0 .433-.476.433-1.083c0-.953.174-1.083 1.516-1.083s1.56.13 1.82 1.3c.173.91.476 1.3 1.083 1.3c.433 0 .909.302 1.039.649c.173.346.52.65.866.65c.347 0 .607.303.607.65c0 .346.39.65.866.65c1.04 0 4.765 1.775 4.765 2.252c0 .173.477.346 1.083.346c.996 0 1.083.173 1.083 1.906c0 1.603-.173 1.95-.953 2.166c-1.429.347-5.111.26-6.714-.217m5.891-1.472c.866-.26.346-.65-3.465-2.513c-2.989-1.473-5.198-2.902-6.541-4.245c-2.166-2.166-2.772-2.122-2.296.13c.563 2.513 4.938 5.978 8.663 6.888c1.3.303 1.776.26 3.639-.26m6.974-.217q0-1.3-.65-1.3t-.65-1.299c0-.693-.173-1.3-.346-1.3s-.91-1.732-1.603-3.898c-.736-2.122-1.429-3.898-1.603-3.898c-.216 0-.346-.304-.346-.65s-.173-.65-.433-.65c-.217 0-.433-.303-.433-.65c0-.346-.174-.65-.434-.65c-.216 0-.433-.693-.433-1.559c0-.996.173-1.43.477-1.213c1.299.78 3.985 5.935 5.371 10.31c.866 2.642 2.036 5.544 2.642 6.454c1.04 1.603 1.04 1.603-.26 1.603c-1.169 0-1.299-.13-1.299-1.3M132.265 72.92c0-.216-.303-.432-.65-.432c-.346 0-.649-.174-.649-.347s-.694-.606-1.517-.91c-.823-.303-1.516-.736-1.516-.953s-.39-.39-.866-.39s-.866-.173-.866-.433c0-.216-.39-.433-.867-.433c-.476 0-1.862-.39-3.118-.866c-2.34-.91-8.231-1.733-12.346-1.733c-1.689 0-2.296-.173-2.296-.606c0-.347-.259-.736-.519-.823c-.304-.13.909-.26 2.685-.303c3.249-.087 3.249-.087.217-.65a98 98 0 0 0-5.935-.866c-1.646-.174-2.945-.477-2.945-.694s.476-1.126 1.04-2.035c.563-.867 1.169-2.166 1.299-2.903c1.213-6.757.953-6.41 3.725-4.938c1.386.737 3.726 2.296 5.155 3.466c1.473 1.17 2.816 2.122 3.032 2.122c.173 0 .866.736 1.473 1.646c.606.867 2.036 2.686 3.249 3.985c1.819 2.08 2.685 2.6 5.804 3.812c3.465 1.3 8.577 4.202 9.183 5.242c.217.303-.216.476-1.213.476c-.866 0-1.559-.173-1.559-.433" />
      <path fill="#fff"
        d="M69.585 180.693c-4.591-4.721-12.691-17.586-12.691-20.099c0-.433-.26-1.559-.607-2.556c-1.386-3.941-1.69-6.67-1.43-12.128c.477-9.227 2.296-16.331 6.238-24.344c3.162-6.454 7.104-10.613 13.732-14.598c2.599-1.559 2.599-1.559-2.08-1.559c-4.721 0-4.721 0-3.552-1.43c.607-.736 1.777-2.339 2.556-3.552c3.552-5.328 11.133-11.609 14.728-12.215c.866-.13 1.603-.347 1.603-.52c0-.13-.433-.823-.997-1.516c-.996-1.256-.996-1.256.737-3.162c2.122-2.34 2.945-2.816 5.371-3.162c1.82-.217 1.82-.217-.563-3.25c-4.722-5.934-9.443-13.644-8.793-14.337c.173-.13 2.295.693 4.764 1.82c3.942 1.862 4.809 2.122 7.278 2.122c2.079 0 3.205-.217 4.115-.823c1.126-.737 1.776-.78 7.32-.52c9.92.477 13.385.953 17.457 2.469c9.66 3.552 13.342 7.234 16.547 16.59c.953 2.73 1.949 5.458 2.252 5.978c1.56 3.076 8.317 7.884 14.382 10.31c1.342.519 2.599 1.169 2.729 1.386c.866 1.386-8.534 6.8-14.555 8.36c-4.375 1.126-11.392 1.343-14.987.433c-1.646-.39-3.552-1.04-4.289-1.429c-.996-.52-2.599-.694-7.147-.65c-7.234.043-12.302 1.213-19.016 4.461c-6.108 2.989-9.963 5.588-14.511 9.963c-9.097 8.707-15.768 20.316-18.063 31.405c-1.04 4.895-1.083 13.515-.174 17.543c.737 3.162 2.6 8.404 3.509 9.877c.996 1.516.087 1.126-1.863-.867m66.665-89.492c.217-.217-1.04-1.083-3.379-2.21c-4.375-2.079-7.797-4.461-8.187-5.674c-.346-1.04-.996-1.126-1.342-.217c-.953 2.383 2.902 6.585 7.58 8.317c1.646.607 4.635.477 5.328-.216" />
    </g>
    <defs>
      <linearGradient id="skillIconsElysiaLight0" x1="43.249" x2="41.083" y1="41.949" y2="43.899"
        gradientUnits="userSpaceOnUse">
        <stop stop-color="#8D8E8D" />
        <stop offset=".01" stop-color="#8B8C8B" />
        <stop offset=".02" stop-color="#8A8C8A" />
        <stop offset=".03" stop-color="#8A8B8A" />
        <stop offset=".04" stop-color="#828382" />
        <stop offset=".05" stop-color="#878987" />
        <stop offset=".12" stop-color="#848584" />
        <stop offset=".13" stop-color="#838583" />
        <stop offset=".14" stop-color="#838483" />
        <stop offset=".24" stop-color="#7D7E7D" />
        <stop offset=".25" stop-color="#7C7E7C" />
        <stop offset=".26" stop-color="#7C7D7C" />
        <stop offset=".28" stop-color="#7B7C7B" />
        <stop offset=".29" stop-color="#7A7C7A" />
        <stop offset=".3" stop-color="#7A7B7A" />
        <stop offset=".31" stop-color="#797B79" />
        <stop offset=".37" stop-color="#777877" />
        <stop offset=".38" stop-color="#767876" />
        <stop offset=".92" stop-color="#616261" />
        <stop offset=".93" stop-color="#5F605E" />
        <stop offset=".94" stop-color="#5F5F5E" />
        <stop offset=".98" stop-color="#5D5E5C" />
        <stop offset="1" stop-color="#5D5D5D" />
      </linearGradient>
      <linearGradient id="skillIconsElysiaLight1" x1="43.249" x2="41.083" y1="41.949" y2="43.899"
        gradientUnits="userSpaceOnUse">
        <stop stop-color="#8D8E8D" />
        <stop offset=".01" stop-color="#8B8C8B" />
        <stop offset=".02" stop-color="#8A8C8A" />
        <stop offset=".03" stop-color="#8A8B8A" />
        <stop offset=".04" stop-color="#828382" />
        <stop offset=".05" stop-color="#878987" />
        <stop offset=".12" stop-color="#848584" />
        <stop offset=".13" stop-color="#838583" />
        <stop offset=".14" stop-color="#838483" />
        <stop offset=".24" stop-color="#7D7E7D" />
        <stop offset=".25" stop-color="#7C7E7C" />
        <stop offset=".26" stop-color="#7C7D7C" />
        <stop offset=".28" stop-color="#7B7C7B" />
        <stop offset=".29" stop-color="#7A7C7A" />
        <stop offset=".3" stop-color="#7A7B7A" />
        <stop offset=".31" stop-color="#797B79" />
        <stop offset=".37" stop-color="#777877" />
        <stop offset=".38" stop-color="#767876" />
        <stop offset=".92" stop-color="#616261" />
        <stop offset=".93" stop-color="#5F605E" />
        <stop offset=".94" stop-color="#5F5F5E" />
        <stop offset=".98" stop-color="#5D5E5C" />
        <stop offset="1" stop-color="#5D5D5D" />
      </linearGradient>
      <clipPath id="skillIconsElysiaLight2">
        <path fill="#fff" d="M0 0h256v256H0z" />
      </clipPath>
    </defs>
  </g>
</svg>