<svg xmlns="http://www.w3.org/2000/svg" width="14" height="14" viewBox="0 0 100 100">
  <defs>
    <style>
      .cls-1 {
        fill: #fff;
      }

      .cls-2 {
        fill: #44b080;
      }

      .cls-3 {
        fill: #35495d;
      }
    </style>
  </defs>
  <path
    class="cls-2"
    d="M100,84.35c-.4,.49-.47,1.18-.7,1.77-1.35,3.36-3.52,5.01-6.52,5.01-28.4,0-56.79,0-85.19,0-4.29,0-7.55-3.88-7.56-9.24-.04-19.51-.04-39.02,0-58.54,.01-5.36,3.26-9.21,7.57-9.21,28.25,0,56.5,0,84.75,0,3.72,0,6.2,2.22,7.44,6.63,.04,.15,.14,.28,.22,.42v63.16Zm-50.04,.72c14.02,0,28.04,0,42.05,0,2.39,0,3.2-1.02,3.2-3.98,0-18.97,0-37.94,0-56.91,0-3-.86-4.08-3.26-4.08-27.93,0-55.85,0-83.78,0-2.28,0-3.25,1.19-3.25,4,0,19.02,0,38.03,0,57.05,0,3,.75,3.92,3.2,3.92,13.95,0,27.89,0,41.84,0Z"
  />
  <path
    class="cls-1"
    d="M49.96,85.07c-13.95,0-27.89,0-41.84,0-2.45,0-3.2-.92-3.2-3.92,0-19.02,0-38.03,0-57.05,0-2.8,.97-4,3.25-4,27.93,0,55.85,0,83.78,0,2.41,0,3.26,1.08,3.26,4.08,0,18.97,0,37.94,0,56.91,0,2.96-.81,3.98-3.2,3.98-14.02,0-28.04,0-42.05,0ZM22.1,32.06c-2.28-.01-4.56,0-6.84-.05-.7-.02-.83,.32-.83,1.1,.02,12.96,.02,25.93,0,38.89,0,.93,.2,1.25,.98,1.23,2.57-.06,5.14-.07,7.71,0,.85,.02,1.02-.34,1.01-1.31-.03-5.69-.02-11.38-.01-17.07,0-.42-.11-.88,.19-1.5,3.1,6.65,6.14,13.17,9.26,19.89,3.18-6.83,6.23-13.36,9.27-19.89,.23,6.24,.25,12.34,.21,18.43,0,1.08,.17,1.49,1.11,1.46,2.5-.09,5-.08,7.5,0,.89,.03,1.17-.25,1.16-1.41-.05-5.19-.02-10.39-.02-15.58,0-7.68-.01-15.36,.02-23.03,0-.95-.21-1.23-.97-1.21-2.28,.07-4.56,.05-6.84,.07-2.09-.01-4.19,0-6.28-.06-.64-.02-.94,.27-1.24,.95-1.25,2.82-2.56,5.61-3.89,8.52-1.43-2.99-2.84-5.86-4.18-8.78-.24-.52-.46-.69-.91-.68-2.13,.03-4.26,.03-6.39,.04Zm38.08,21.31c.21,.35,.29,.49,.38,.61,2.15,2.93,4.3,5.85,6.44,8.78,2.31,3.17,4.63,6.34,6.9,9.56,.53,.74,.84,.73,1.32-.02,.55-.89,1.18-1.7,1.79-2.54,3.34-4.68,6.69-9.35,10.03-14.03,.61-.86,1.2-1.73,1.95-2.8-2.93,0-5.63-.06-8.33,.03-1.01,.03-1.34-.23-1.33-1.59,.07-6.05,.01-12.11,.05-18.16,0-.96-.21-1.22-.97-1.2-2.53,.06-5.07,.06-7.61,0-.79-.02-1.04,.21-1.04,1.25,.05,5.42,.04,10.84,0,16.26,0,1.24,.45,2.85-.21,3.63-.6,.72-1.87,.19-2.84,.2-2.12,.03-4.23,0-6.54,0Z"
  />
  <path
    class="cls-2"
    d="M45,32.07c2.28-.01,4.56,0,6.84-.07,.76-.02,.97,.26,.97,1.21-.03,7.68-.02,15.36-.02,23.03,0,5.19-.03,10.39,.02,15.58,.01,1.16-.27,1.43-1.16,1.41-2.5-.07-5-.08-7.5,0-.95,.03-1.12-.38-1.11-1.46,.04-6.1,.02-12.19-.21-18.43-3.05,6.53-6.09,13.06-9.27,19.89-3.13-6.72-6.17-13.24-9.26-19.89-.3,.63-.19,1.08-.19,1.5,0,5.69-.02,11.38,.01,17.07,0,.98-.16,1.34-1.01,1.31-2.57-.07-5.14-.06-7.71,0-.77,.02-.98-.31-.98-1.23,.02-12.96,.02-25.93,0-38.89,0-.78,.13-1.12,.83-1.1,2.28,.06,4.56,.04,6.84,.05,.67,1.54,1.3,3.11,2.01,4.62,1.77,3.82,3.58,7.62,5.37,11.43,1.34,2.86,2.68,5.72,4.08,8.7,.24-.48,.4-.77,.54-1.08,2.47-5.35,4.95-10.69,7.41-16.04,1.17-2.53,2.32-5.08,3.49-7.62Z"
  />
  <path
    class="cls-2"
    d="M60.18,53.37c2.31,0,4.43,.02,6.54,0,.97-.01,2.23,.51,2.84-.2,.66-.79,.2-2.39,.21-3.63,.03-5.42,.04-10.84,0-16.26,0-1.04,.24-1.27,1.04-1.25,2.53,.06,5.07,.06,7.61,0,.76-.02,.97,.24,.97,1.2-.03,6.05,.02,12.11-.05,18.16-.02,1.36,.31,1.62,1.33,1.59,2.7-.09,5.4-.03,8.33-.03-.74,1.07-1.33,1.95-1.95,2.8-3.34,4.68-6.69,9.35-10.03,14.03-.6,.84-1.23,1.65-1.79,2.54-.47,.76-.79,.76-1.32,.02-2.28-3.21-4.59-6.38-6.9-9.56-2.14-2.94-4.3-5.85-6.44-8.78-.09-.12-.16-.26-.38-.61Z"
  />
  <path
    class="cls-3"
    d="M45,32.07c-1.16,2.54-2.32,5.08-3.49,7.62-2.47,5.35-4.94,10.7-7.41,16.04-.14,.31-.3,.6-.54,1.08-1.4-2.98-2.74-5.84-4.08-8.7-1.79-3.81-3.6-7.61-5.37-11.43-.7-1.52-1.34-3.08-2.01-4.62,2.13,0,4.26,0,6.39-.04,.45,0,.67,.16,.91,.68,1.35,2.92,2.75,5.79,4.18,8.78,1.34-2.91,2.64-5.7,3.89-8.52,.3-.67,.6-.97,1.24-.95,2.09,.06,4.19,.05,6.28,.06Z"
  />
</svg>
