<svg xmlns="http://www.w3.org/2000/svg" width="14" height="14" viewBox="0 0 99.03 99.01">
  <defs>
    <style>
      .cls-1 {
        fill: #050201;
      }

      .cls-3 {
        fill: #e6d453;
      }
    </style>
  </defs>
  <path
    class="cls-3"
    d="M.05,49.51c0-15.48,.05-30.96-.05-46.44C-.02,.64,.73,0,3.11,0c30.97,.07,61.94,.07,92.9,0,2.23,0,3.02,.55,3.01,2.92-.07,31.04-.07,62.09,0,93.13,0,2.33-.72,2.95-2.99,2.94-30.97-.06-61.94-.08-92.9,.02-2.65,0-3.15-.9-3.14-3.31,.1-15.4,.05-30.79,.05-46.19Z"
  />
  <path
    class="cls-1"
    d="M65.04,73.97c0-2.91,0-5.82,0-8.73,0-.97,.15-1.9,1.2-2.2,.91-.26,1.91-.24,2.28,.88,.45,1.35,1,.29,1.42,.07,2.47-1.25,4.92-2.28,7.83-1.54,3.24,.83,5.29,2.74,5.72,6.05,.63,4.8,.22,9.63,.27,14.45,.01,1.26-.61,2.11-1.97,2.03-1.29-.07-1.89-.84-1.88-2.15,.02-3.66,.02-7.32,0-10.98-.03-4.26-1.33-5.9-4.61-5.97-4.04-.08-6.51,2.17-6.58,6.11-.06,3.49,0,6.99-.02,10.48,0,1.19-.04,2.47-1.69,2.51-1.72,.04-1.97-1.15-1.96-2.53,.02-2.83,0-5.65,0-8.48Z"
  />
  <path
    class="cls-1"
    d="M55.99,71.07c0-2.08,.02-4.16,0-6.23-.01-1.23,.55-1.85,1.79-1.88,1.26-.03,1.88,.67,1.88,1.82-.02,4.57,.2,9.16-.23,13.7-.43,4.61-4.11,7.13-9.28,7.03-4.7-.09-8.32-3.03-8.66-7.55-.32-4.3-.14-8.64-.17-12.96,0-1.31,.67-2.02,1.97-2.04,1.4-.02,1.85,.8,1.84,2.09-.02,3.66-.06,7.31,.01,10.97,.09,4.69,2.65,6.58,7.23,5.51,2.4-.56,3.44-2.2,3.57-4.48,.11-1.99,.02-3.99,.02-5.98,0,0,.02,0,.03,0Z"
  />
</svg>
